<svg width="22" height="23" viewBox="0 0 22 23" fill="none" xmlns="http://www.w3.org/2000/svg">
<g filter="url(#filter0_d_420_3670)">
<path d="M16.6129 14.7032L11.1774 8.05409C11.1129 7.97493 11.0673 7.88918 11.0406 7.79683C11.0135 7.70449 11 7.60554 11 7.5C11 7.39446 11.0135 7.29551 11.0406 7.20317C11.0673 7.11082 11.1129 7.02507 11.1774 6.94591L16.6129 0.277045C16.7634 0.0923482 16.9516 0 17.1774 0C17.4032 0 17.5968 0.0989446 17.7581 0.296834C17.9194 0.494723 18 0.725594 18 0.989446C18 1.2533 17.9194 1.48417 17.7581 1.68206L13.0161 7.5L17.7581 13.3179C17.9086 13.5026 17.9839 13.7301 17.9839 14.0003C17.9839 14.271 17.9032 14.5053 17.7419 14.7032C17.5806 14.9011 17.3925 15 17.1774 15C16.9624 15 16.7742 14.9011 16.6129 14.7032Z" fill="#578BB7"/>
</g>
<g filter="url(#filter1_d_420_3670)">
<path d="M9.6129 14.7032L4.17742 8.05409C4.1129 7.97493 4.06731 7.88918 4.04064 7.79683C4.01355 7.70449 4 7.60554 4 7.5C4 7.39446 4.01355 7.29551 4.04064 7.20317C4.06731 7.11082 4.1129 7.02507 4.17742 6.94591L9.6129 0.277045C9.76344 0.0923482 9.95161 0 10.1774 0C10.4032 0 10.5968 0.0989446 10.7581 0.296834C10.9194 0.494723 11 0.725594 11 0.989446C11 1.2533 10.9194 1.48417 10.7581 1.68206L6.01613 7.5L10.7581 13.3179C10.9086 13.5026 10.9839 13.7301 10.9839 14.0003C10.9839 14.271 10.9032 14.5053 10.7419 14.7032C10.5806 14.9011 10.3925 15 10.1774 15C9.96237 15 9.77419 14.9011 9.6129 14.7032Z" fill="#578BB7"/>
</g>
<defs>
<filter id="filter0_d_420_3670" x="7" y="0" width="15" height="23" filterUnits="userSpaceOnUse" color-interpolation-filters="sRGB">
<feFlood flood-opacity="0" result="BackgroundImageFix"/>
<feColorMatrix in="SourceAlpha" type="matrix" values="0 0 0 0 0 0 0 0 0 0 0 0 0 0 0 0 0 0 127 0" result="hardAlpha"/>
<feOffset dy="4"/>
<feGaussianBlur stdDeviation="2"/>
<feComposite in2="hardAlpha" operator="out"/>
<feColorMatrix type="matrix" values="0 0 0 0 0 0 0 0 0 0 0 0 0 0 0 0 0 0 0.25 0"/>
<feBlend mode="normal" in2="BackgroundImageFix" result="effect1_dropShadow_420_3670"/>
<feBlend mode="normal" in="SourceGraphic" in2="effect1_dropShadow_420_3670" result="shape"/>
</filter>
<filter id="filter1_d_420_3670" x="0" y="0" width="15" height="23" filterUnits="userSpaceOnUse" color-interpolation-filters="sRGB">
<feFlood flood-opacity="0" result="BackgroundImageFix"/>
<feColorMatrix in="SourceAlpha" type="matrix" values="0 0 0 0 0 0 0 0 0 0 0 0 0 0 0 0 0 0 127 0" result="hardAlpha"/>
<feOffset dy="4"/>
<feGaussianBlur stdDeviation="2"/>
<feComposite in2="hardAlpha" operator="out"/>
<feColorMatrix type="matrix" values="0 0 0 0 0 0 0 0 0 0 0 0 0 0 0 0 0 0 0.25 0"/>
<feBlend mode="normal" in2="BackgroundImageFix" result="effect1_dropShadow_420_3670"/>
<feBlend mode="normal" in="SourceGraphic" in2="effect1_dropShadow_420_3670" result="shape"/>
</filter>
</defs>
</svg>
