<svg width="300" height="223" viewBox="0 0 300 223" fill="none" xmlns="http://www.w3.org/2000/svg">
<g filter="url(#filter0_d_144_7431)">
<rect x="4" width="291.005" height="214.471" rx="15" fill="white"/>
</g>
<path d="M65.688 22.4581C65.296 22.4581 64.8947 22.4254 64.484 22.3601C64.0827 22.3041 63.6953 22.2201 63.322 22.1081C62.958 21.9961 62.6313 21.8561 62.342 21.6881C62.1367 21.5761 61.992 21.4314 61.908 21.2541C61.824 21.0674 61.7913 20.8807 61.81 20.6941C61.838 20.5074 61.908 20.3441 62.02 20.2041C62.1413 20.0547 62.2907 19.9614 62.468 19.9241C62.6547 19.8774 62.86 19.9101 63.084 20.0221C63.4667 20.2367 63.882 20.3954 64.33 20.4981C64.7873 20.6007 65.24 20.6521 65.688 20.6521C66.3693 20.6521 66.8547 20.5494 67.144 20.3441C67.4333 20.1294 67.578 19.8634 67.578 19.5461C67.578 19.2754 67.4753 19.0607 67.27 18.9021C67.0647 18.7434 66.7053 18.6081 66.192 18.4961L64.61 18.1601C63.714 17.9734 63.0467 17.6561 62.608 17.2081C62.1787 16.7507 61.964 16.1534 61.964 15.4161C61.964 14.9494 62.062 14.5247 62.258 14.1421C62.454 13.7594 62.7293 13.4281 63.084 13.1481C63.4387 12.8681 63.8587 12.6534 64.344 12.5041C64.8387 12.3547 65.38 12.2801 65.968 12.2801C66.4907 12.2801 67.004 12.3454 67.508 12.4761C68.012 12.5974 68.4553 12.7794 68.838 13.0221C69.0247 13.1341 69.1507 13.2787 69.216 13.4561C69.2907 13.6241 69.314 13.7967 69.286 13.9741C69.2673 14.1421 69.1973 14.2914 69.076 14.4221C68.964 14.5527 68.8193 14.6367 68.642 14.6741C68.4647 14.7114 68.25 14.6694 67.998 14.5481C67.69 14.3894 67.3633 14.2727 67.018 14.1981C66.6727 14.1234 66.318 14.0861 65.954 14.0861C65.562 14.0861 65.226 14.1374 64.946 14.2401C64.6753 14.3427 64.4653 14.4874 64.316 14.6741C64.176 14.8607 64.106 15.0754 64.106 15.3181C64.106 15.5887 64.204 15.8081 64.4 15.9761C64.596 16.1441 64.9367 16.2794 65.422 16.3821L67.004 16.7181C67.9187 16.9141 68.6 17.2314 69.048 17.6701C69.496 18.0994 69.72 18.6687 69.72 19.3781C69.72 19.8447 69.6267 20.2694 69.44 20.6521C69.2533 21.0254 68.9827 21.3474 68.628 21.6181C68.2733 21.8887 67.8487 22.0987 67.354 22.2481C66.8593 22.3881 66.304 22.4581 65.688 22.4581Z" fill="#578BB7"/>
<path d="M20.8551 22.3041C20.4911 22.3041 20.2111 22.2061 20.0151 22.0101C19.8191 21.8141 19.7211 21.5341 19.7211 21.1701V13.5681C19.7211 13.2041 19.8191 12.9241 20.0151 12.7281C20.2111 12.5321 20.4911 12.4341 20.8551 12.4341H23.5851C25.2744 12.4341 26.5764 12.8634 27.4911 13.7221C28.4151 14.5714 28.8771 15.7847 28.8771 17.3621C28.8771 18.1554 28.7557 18.8601 28.5131 19.4761C28.2797 20.0827 27.9391 20.5961 27.4911 21.0161C27.0431 21.4361 26.4924 21.7581 25.8391 21.9821C25.1857 22.1967 24.4344 22.3041 23.5851 22.3041H20.8551ZM21.8911 20.5261H23.4591C23.9911 20.5261 24.4531 20.4607 24.8451 20.3301C25.2371 20.1994 25.5637 20.0034 25.8251 19.7421C26.0864 19.4807 26.2824 19.1541 26.4131 18.7621C26.5437 18.3607 26.6091 17.8941 26.6091 17.3621C26.6091 16.2981 26.3431 15.5094 25.8111 14.9961C25.2884 14.4734 24.5044 14.2121 23.4591 14.2121H21.8911V20.5261Z" fill="#578BB7"/>
<rect x="93.207" y="113.521" width="25.1165" height="26.5113" rx="8" fill="#B1DAFC"/>
<path d="M145.642 64.5566C145.343 64.5566 145.115 64.4773 144.956 64.3186C144.797 64.16 144.718 63.9406 144.718 63.6606C144.718 63.3713 144.797 63.152 144.956 63.0026C145.115 62.8533 145.343 62.7786 145.642 62.7786H147.056V56.4646H148.078L146.034 57.7106C145.819 57.8413 145.619 57.8926 145.432 57.8646C145.255 57.8366 145.101 57.7573 144.97 57.6266C144.839 57.496 144.751 57.342 144.704 57.1646C144.667 56.978 144.685 56.796 144.76 56.6186C144.835 56.432 144.975 56.2733 145.18 56.1426L147.126 54.9666C147.322 54.8453 147.518 54.7473 147.714 54.6726C147.919 54.598 148.12 54.5606 148.316 54.5606C148.596 54.5606 148.815 54.6353 148.974 54.7846C149.142 54.9246 149.226 55.144 149.226 55.4426V62.7786H150.5C150.789 62.7786 151.013 62.8533 151.172 63.0026C151.331 63.152 151.41 63.3713 151.41 63.6606C151.41 63.95 151.331 64.174 151.172 64.3326C151.013 64.482 150.789 64.5566 150.5 64.5566H145.642Z" fill="#578BB7"/>
<path d="M184.35 64.5566C184.005 64.5566 183.748 64.4773 183.58 64.3186C183.421 64.1506 183.342 63.908 183.342 63.5906C183.342 63.3853 183.393 63.194 183.496 63.0166C183.599 62.8393 183.739 62.6573 183.916 62.4706L186.548 59.6986C186.94 59.2786 187.22 58.9053 187.388 58.5786C187.565 58.252 187.654 57.9253 187.654 57.5986C187.654 57.188 187.519 56.8753 187.248 56.6606C186.987 56.446 186.604 56.3386 186.1 56.3386C185.829 56.3386 185.549 56.3806 185.26 56.4646C184.98 56.5393 184.686 56.6653 184.378 56.8426C184.173 56.9546 183.981 56.9966 183.804 56.9686C183.636 56.9313 183.491 56.852 183.37 56.7306C183.249 56.6 183.169 56.446 183.132 56.2686C183.095 56.0913 183.113 55.914 183.188 55.7366C183.263 55.5593 183.403 55.41 183.608 55.2886C184.019 55.0366 184.467 54.85 184.952 54.7286C185.437 54.598 185.918 54.5326 186.394 54.5326C187.131 54.5326 187.752 54.6446 188.256 54.8686C188.76 55.0833 189.143 55.4006 189.404 55.8206C189.665 56.2406 189.796 56.754 189.796 57.3606C189.796 57.7526 189.735 58.1353 189.614 58.5086C189.493 58.882 189.301 59.26 189.04 59.6426C188.788 60.016 188.452 60.4173 188.032 60.8466L185.582 63.3386V62.7786H189.376C189.675 62.7786 189.899 62.8533 190.048 63.0026C190.207 63.152 190.286 63.3713 190.286 63.6606C190.286 63.95 190.207 64.174 190.048 64.3326C189.899 64.482 189.675 64.5566 189.376 64.5566H184.35Z" fill="#578BB7"/>
<path d="M231.417 64.7106C230.922 64.7106 230.418 64.6546 229.905 64.5426C229.401 64.4213 228.962 64.2533 228.589 64.0386C228.346 63.908 228.178 63.754 228.085 63.5766C228.001 63.39 227.968 63.208 227.987 63.0306C228.015 62.8533 228.089 62.6993 228.211 62.5686C228.332 62.4286 228.486 62.34 228.673 62.3026C228.869 62.2653 229.083 62.3026 229.317 62.4146C229.681 62.592 230.026 62.718 230.353 62.7926C230.679 62.8673 231.006 62.9046 231.333 62.9046C231.706 62.9046 232.019 62.858 232.271 62.7646C232.523 62.662 232.714 62.5173 232.845 62.3306C232.975 62.144 233.041 61.9106 233.041 61.6306C233.041 61.2386 232.905 60.9446 232.635 60.7486C232.364 60.5526 231.967 60.4546 231.445 60.4546H230.619C230.311 60.4546 230.073 60.38 229.905 60.2306C229.746 60.072 229.667 59.8573 229.667 59.5866C229.667 59.3066 229.746 59.092 229.905 58.9426C230.073 58.784 230.311 58.7046 230.619 58.7046H231.235C231.552 58.7046 231.818 58.658 232.033 58.5646C232.257 58.462 232.429 58.322 232.551 58.1446C232.681 57.9673 232.747 57.748 232.747 57.4866C232.747 57.1133 232.616 56.8286 232.355 56.6326C232.103 56.4366 231.734 56.3386 231.249 56.3386C230.95 56.3386 230.656 56.376 230.367 56.4506C230.077 56.516 229.765 56.6373 229.429 56.8146C229.223 56.9173 229.032 56.95 228.855 56.9126C228.677 56.8753 228.528 56.7913 228.407 56.6606C228.295 56.53 228.22 56.3806 228.183 56.2126C228.155 56.0353 228.178 55.858 228.253 55.6806C228.337 55.5033 228.486 55.3586 228.701 55.2466C229.102 55.0133 229.536 54.836 230.003 54.7146C230.479 54.5933 230.959 54.5326 231.445 54.5326C232.154 54.5326 232.761 54.64 233.265 54.8546C233.769 55.0693 234.156 55.3773 234.427 55.7786C234.697 56.1706 234.833 56.6466 234.833 57.2066C234.833 57.5893 234.758 57.9393 234.609 58.2566C234.459 58.574 234.249 58.8446 233.979 59.0686C233.717 59.2833 233.395 59.4373 233.013 59.5306V59.3486C233.675 59.4606 234.193 59.736 234.567 60.1746C234.94 60.6133 235.127 61.164 235.127 61.8266C235.127 62.4146 234.977 62.928 234.679 63.3666C234.38 63.796 233.951 64.1273 233.391 64.3606C232.84 64.594 232.182 64.7106 231.417 64.7106Z" fill="#578BB7"/>
<path d="M269.57 63.854C269.234 63.854 268.968 63.7607 268.772 63.574C268.585 63.3874 268.492 63.1167 268.492 62.762V61.964H265.356C265.01 61.964 264.735 61.8894 264.53 61.74C264.324 61.5814 264.222 61.3434 264.222 61.026C264.222 60.8394 264.264 60.648 264.348 60.452C264.432 60.256 264.581 60.0134 264.796 59.724L268.422 54.446C268.58 54.2127 268.758 54.0354 268.954 53.914C269.15 53.7927 269.374 53.732 269.626 53.732C269.924 53.732 270.162 53.8254 270.34 54.012C270.526 54.1894 270.62 54.46 270.62 54.824V60.256H271.138C271.446 60.256 271.679 60.3307 271.838 60.48C271.996 60.62 272.076 60.83 272.076 61.11C272.076 61.3807 271.996 61.5907 271.838 61.74C271.688 61.8894 271.455 61.964 271.138 61.964H270.62V62.762C270.62 63.1167 270.526 63.3874 270.34 63.574C270.162 63.7607 269.906 63.854 269.57 63.854ZM268.492 60.256V56.406H268.898L265.916 60.788V60.256H268.492Z" fill="#578BB7"/>
<path d="M147.644 97.8497C146.86 97.8497 146.188 97.7377 145.628 97.5137C145.068 97.2897 144.639 96.9677 144.34 96.5477C144.041 96.1183 143.892 95.605 143.892 95.0077C143.892 94.541 143.985 94.1257 144.172 93.7617C144.368 93.3977 144.634 93.1037 144.97 92.8797C145.306 92.6557 145.684 92.5157 146.104 92.4597V92.8237C145.516 92.693 145.04 92.4083 144.676 91.9697C144.321 91.5217 144.144 90.985 144.144 90.3597C144.144 89.7997 144.284 89.319 144.564 88.9177C144.853 88.5163 145.259 88.2083 145.782 87.9937C146.314 87.779 146.935 87.6717 147.644 87.6717C148.363 87.6717 148.983 87.779 149.506 87.9937C150.029 88.2083 150.435 88.5163 150.724 88.9177C151.013 89.319 151.158 89.7997 151.158 90.3597C151.158 90.7797 151.074 91.1623 150.906 91.5077C150.747 91.853 150.519 92.1377 150.22 92.3617C149.931 92.5857 149.595 92.7303 149.212 92.7957V92.4597C149.856 92.553 150.379 92.8283 150.78 93.2857C151.191 93.743 151.396 94.317 151.396 95.0077C151.396 95.605 151.247 96.1183 150.948 96.5477C150.649 96.9677 150.22 97.2897 149.66 97.5137C149.1 97.7377 148.428 97.8497 147.644 97.8497ZM147.644 96.1837C148.223 96.1837 148.661 96.0717 148.96 95.8477C149.259 95.6237 149.408 95.2923 149.408 94.8537C149.408 94.415 149.259 94.0883 148.96 93.8737C148.661 93.6497 148.223 93.5377 147.644 93.5377C147.065 93.5377 146.627 93.6497 146.328 93.8737C146.029 94.0883 145.88 94.415 145.88 94.8537C145.88 95.2923 146.029 95.6237 146.328 95.8477C146.627 96.0717 147.065 96.1837 147.644 96.1837ZM147.644 91.8717C147.961 91.8717 148.232 91.8203 148.456 91.7177C148.689 91.615 148.862 91.4657 148.974 91.2697C149.095 91.0737 149.156 90.8497 149.156 90.5977C149.156 90.2057 149.021 89.8977 148.75 89.6737C148.489 89.4497 148.12 89.3377 147.644 89.3377C147.168 89.3377 146.799 89.4497 146.538 89.6737C146.277 89.8977 146.146 90.2057 146.146 90.5977C146.146 90.9897 146.277 91.3023 146.538 91.5357C146.799 91.7597 147.168 91.8717 147.644 91.8717Z" fill="#578BB7"/>
<path d="M21.2101 97.8497C20.7341 97.8497 20.2441 97.789 19.7401 97.6677C19.2361 97.5463 18.7741 97.3643 18.3541 97.1217C18.1394 97.0003 17.9901 96.851 17.9061 96.6737C17.8314 96.4963 17.8081 96.3143 17.8361 96.1277C17.8734 95.941 17.9481 95.7823 18.0601 95.6517C18.1814 95.5117 18.3308 95.423 18.5081 95.3857C18.6948 95.3483 18.9001 95.3903 19.1241 95.5117C19.4508 95.6797 19.7821 95.8103 20.1181 95.9037C20.4634 95.997 20.8134 96.0437 21.1681 96.0437C21.5228 96.0437 21.8261 95.983 22.0781 95.8617C22.3301 95.7403 22.5214 95.5723 22.6521 95.3577C22.7828 95.143 22.8481 94.891 22.8481 94.6017C22.8481 94.1537 22.7034 93.7943 22.4141 93.5237C22.1341 93.253 21.7514 93.1177 21.2661 93.1177C21.0234 93.1177 20.7761 93.1597 20.5241 93.2437C20.2814 93.3183 20.0294 93.4537 19.7681 93.6497C19.6748 93.7243 19.5534 93.7943 19.4041 93.8597C19.2548 93.925 19.0961 93.9577 18.9281 93.9577C18.6388 93.9577 18.4241 93.8923 18.2841 93.7617C18.1441 93.6217 18.0741 93.421 18.0741 93.1597V88.7637C18.0741 88.4557 18.1534 88.2223 18.3121 88.0637C18.4801 87.905 18.7134 87.8257 19.0121 87.8257H23.5061C23.8141 87.8257 24.0474 87.905 24.2061 88.0637C24.3648 88.213 24.4441 88.4323 24.4441 88.7217C24.4441 89.0017 24.3648 89.221 24.2061 89.3797C24.0474 89.529 23.8141 89.6037 23.5061 89.6037H20.1601V92.2777H19.6281C19.8614 91.9883 20.1694 91.7643 20.5521 91.6057C20.9348 91.447 21.3548 91.3677 21.8121 91.3677C22.4374 91.3677 22.9834 91.503 23.4501 91.7737C23.9168 92.035 24.2808 92.4037 24.5421 92.8797C24.8034 93.3557 24.9341 93.9063 24.9341 94.5317C24.9341 95.185 24.7848 95.7637 24.4861 96.2677C24.1874 96.7623 23.7581 97.1497 23.1981 97.4297C22.6381 97.7097 21.9754 97.8497 21.2101 97.8497Z" fill="#578BB7"/>
<path d="M62.2792 97.8497C61.4392 97.8497 60.7252 97.6537 60.1372 97.2617C59.5492 96.8697 59.1012 96.305 58.7932 95.5677C58.4852 94.8303 58.3312 93.939 58.3312 92.8937C58.3312 92.063 58.4292 91.3257 58.6252 90.6817C58.8305 90.0377 59.1198 89.4917 59.4932 89.0437C59.8665 88.5957 60.3238 88.255 60.8652 88.0217C61.4158 87.7883 62.0318 87.6717 62.7132 87.6717C63.1145 87.6717 63.5205 87.7277 63.9312 87.8397C64.3418 87.9517 64.7245 88.1197 65.0792 88.3437C65.2658 88.437 65.3918 88.5723 65.4572 88.7497C65.5318 88.9177 65.5552 89.0903 65.5272 89.2677C65.4992 89.445 65.4292 89.6037 65.3172 89.7437C65.2052 89.8743 65.0605 89.963 64.8832 90.0097C64.7152 90.047 64.5192 90.0143 64.2952 89.9117C64.0058 89.753 63.7258 89.641 63.4552 89.5757C63.1938 89.5103 62.9372 89.4777 62.6852 89.4777C62.1905 89.4777 61.7705 89.5897 61.4252 89.8137C61.0798 90.0377 60.8185 90.3737 60.6412 90.8217C60.4732 91.2697 60.3892 91.825 60.3892 92.4877V93.3977H60.1932C60.2772 92.9497 60.4312 92.5717 60.6552 92.2637C60.8885 91.9463 61.1825 91.7037 61.5372 91.5357C61.8918 91.3677 62.2838 91.2837 62.7132 91.2837C63.2732 91.2837 63.7678 91.4237 64.1972 91.7037C64.6358 91.9743 64.9812 92.3523 65.2332 92.8377C65.4852 93.3137 65.6112 93.8597 65.6112 94.4757C65.6112 95.129 65.4712 95.7123 65.1912 96.2257C64.9112 96.7297 64.5192 97.1263 64.0152 97.4157C63.5205 97.705 62.9418 97.8497 62.2792 97.8497ZM62.1672 96.1557C62.4565 96.1557 62.7085 96.0903 62.9232 95.9597C63.1472 95.829 63.3152 95.6423 63.4272 95.3997C63.5485 95.157 63.6092 94.877 63.6092 94.5597C63.6092 94.2423 63.5485 93.967 63.4272 93.7337C63.3152 93.491 63.1472 93.3043 62.9232 93.1737C62.7085 93.0337 62.4565 92.9637 62.1672 92.9637C61.8778 92.9637 61.6212 93.0337 61.3972 93.1737C61.1825 93.3043 61.0145 93.491 60.8932 93.7337C60.7718 93.967 60.7112 94.2423 60.7112 94.5597C60.7112 94.877 60.7718 95.157 60.8932 95.3997C61.0145 95.6423 61.1825 95.829 61.3972 95.9597C61.6212 96.0903 61.8778 96.1557 62.1672 96.1557Z" fill="#578BB7"/>
<path d="M103.456 97.8217C103.186 97.8217 102.966 97.761 102.798 97.6397C102.63 97.509 102.532 97.341 102.504 97.1357C102.476 96.9303 102.532 96.7017 102.672 96.4497L106.718 88.9457V89.6177H102.49C102.182 89.6177 101.949 89.543 101.79 89.3937C101.632 89.235 101.552 89.011 101.552 88.7217C101.552 88.4323 101.632 88.213 101.79 88.0637C101.949 87.905 102.182 87.8257 102.49 87.8257H107.824C108.123 87.8257 108.366 87.905 108.552 88.0637C108.748 88.2223 108.846 88.4463 108.846 88.7357C108.846 88.9877 108.809 89.207 108.734 89.3937C108.669 89.5803 108.58 89.781 108.468 89.9957L104.688 97.1217C104.558 97.3643 104.394 97.5417 104.198 97.6537C104.002 97.7657 103.755 97.8217 103.456 97.8217Z" fill="#578BB7"/>
<path d="M185.806 97.8497C185.405 97.8497 184.999 97.7937 184.588 97.6817C184.177 97.5697 183.795 97.4017 183.44 97.1777C183.253 97.0843 183.123 96.9537 183.048 96.7857C182.983 96.6083 182.964 96.431 182.992 96.2537C183.02 96.0763 183.09 95.9223 183.202 95.7917C183.314 95.6517 183.454 95.563 183.622 95.5257C183.799 95.479 184 95.507 184.224 95.6097C184.513 95.7683 184.789 95.8803 185.05 95.9457C185.321 96.011 185.582 96.0437 185.834 96.0437C186.329 96.0437 186.749 95.9317 187.094 95.7077C187.439 95.4837 187.696 95.1477 187.864 94.6997C188.041 94.2423 188.13 93.687 188.13 93.0337V92.1237H188.326C188.251 92.5623 188.097 92.9403 187.864 93.2577C187.631 93.575 187.337 93.8177 186.982 93.9857C186.627 94.1537 186.235 94.2377 185.806 94.2377C185.255 94.2377 184.761 94.1023 184.322 93.8317C183.883 93.5517 183.538 93.169 183.286 92.6837C183.034 92.1983 182.908 91.6523 182.908 91.0457C182.908 90.3923 183.048 89.8137 183.328 89.3097C183.608 88.7963 184 88.395 184.504 88.1057C185.008 87.8163 185.587 87.6717 186.24 87.6717C187.089 87.6717 187.803 87.8677 188.382 88.2597C188.97 88.6423 189.418 89.207 189.726 89.9537C190.034 90.691 190.188 91.5823 190.188 92.6277C190.188 93.4583 190.085 94.1957 189.88 94.8397C189.684 95.4837 189.399 96.0297 189.026 96.4777C188.653 96.9257 188.191 97.2663 187.64 97.4997C187.099 97.733 186.487 97.8497 185.806 97.8497ZM186.366 92.5437C186.655 92.5437 186.907 92.4783 187.122 92.3477C187.346 92.2077 187.519 92.0163 187.64 91.7737C187.761 91.531 187.822 91.2557 187.822 90.9477C187.822 90.6303 187.761 90.3503 187.64 90.1077C187.519 89.865 187.346 89.6783 187.122 89.5477C186.907 89.417 186.655 89.3517 186.366 89.3517C186.077 89.3517 185.825 89.417 185.61 89.5477C185.395 89.6783 185.223 89.865 185.092 90.1077C184.971 90.3503 184.91 90.6303 184.91 90.9477C184.91 91.2557 184.971 91.531 185.092 91.7737C185.223 92.0163 185.395 92.2077 185.61 92.3477C185.825 92.4783 186.077 92.5437 186.366 92.5437Z" fill="#578BB7"/>
<path d="M224.198 98C223.899 98 223.671 97.9207 223.512 97.762C223.353 97.6033 223.274 97.384 223.274 97.104C223.274 96.8147 223.353 96.5953 223.512 96.446C223.671 96.2967 223.899 96.222 224.198 96.222H225.612V89.908H226.634L224.59 91.154C224.375 91.2847 224.175 91.336 223.988 91.308C223.811 91.28 223.657 91.2007 223.526 91.07C223.395 90.9393 223.307 90.7853 223.26 90.608C223.223 90.4213 223.241 90.2393 223.316 90.062C223.391 89.8753 223.531 89.7167 223.736 89.586L225.682 88.41C225.878 88.2887 226.074 88.1907 226.27 88.116C226.475 88.0413 226.676 88.004 226.872 88.004C227.152 88.004 227.371 88.0787 227.53 88.228C227.698 88.368 227.782 88.5873 227.782 88.886V96.222H229.056C229.345 96.222 229.569 96.2967 229.728 96.446C229.887 96.5953 229.966 96.8147 229.966 97.104C229.966 97.3933 229.887 97.6173 229.728 97.776C229.569 97.9253 229.345 98 229.056 98H224.198ZM234.595 98.154C233.4 98.154 232.485 97.7107 231.851 96.824C231.225 95.928 230.913 94.6633 230.913 93.03C230.913 91.938 231.053 91.0187 231.333 90.272C231.622 89.516 232.037 88.9467 232.579 88.564C233.129 88.172 233.801 87.976 234.595 87.976C235.799 87.976 236.713 88.41 237.339 89.278C237.964 90.1367 238.277 91.3873 238.277 93.03C238.277 94.122 238.132 95.0507 237.843 95.816C237.563 96.572 237.152 97.1507 236.611 97.552C236.069 97.9533 235.397 98.154 234.595 98.154ZM234.595 96.39C235.136 96.39 235.537 96.124 235.799 95.592C236.06 95.0507 236.191 94.1967 236.191 93.03C236.191 91.8633 236.06 91.0233 235.799 90.51C235.537 89.9967 235.136 89.74 234.595 89.74C234.053 89.74 233.652 89.9967 233.391 90.51C233.129 91.0233 232.999 91.8633 232.999 93.03C232.999 94.1967 233.129 95.0507 233.391 95.592C233.652 96.124 234.053 96.39 234.595 96.39Z" fill="#578BB7"/>
<path d="M266.198 97C265.899 97 265.671 96.9207 265.512 96.762C265.353 96.6033 265.274 96.384 265.274 96.104C265.274 95.8147 265.353 95.5953 265.512 95.446C265.671 95.2967 265.899 95.222 266.198 95.222H267.612V88.908H268.634L266.59 90.154C266.375 90.2847 266.175 90.336 265.988 90.308C265.811 90.28 265.657 90.2007 265.526 90.07C265.395 89.9393 265.307 89.7853 265.26 89.608C265.223 89.4213 265.241 89.2393 265.316 89.062C265.391 88.8753 265.531 88.7167 265.736 88.586L267.682 87.41C267.878 87.2887 268.074 87.1907 268.27 87.116C268.475 87.0413 268.676 87.004 268.872 87.004C269.152 87.004 269.371 87.0787 269.53 87.228C269.698 87.368 269.782 87.5873 269.782 87.886V95.222H271.056C271.345 95.222 271.569 95.2967 271.728 95.446C271.887 95.5953 271.966 95.8147 271.966 96.104C271.966 96.3933 271.887 96.6173 271.728 96.776C271.569 96.9253 271.345 97 271.056 97H266.198ZM274.593 97C274.294 97 274.065 96.9207 273.907 96.762C273.748 96.6033 273.669 96.384 273.669 96.104C273.669 95.8147 273.748 95.5953 273.907 95.446C274.065 95.2967 274.294 95.222 274.593 95.222H276.007V88.908H277.029L274.985 90.154C274.77 90.2847 274.569 90.336 274.383 90.308C274.205 90.28 274.051 90.2007 273.921 90.07C273.79 89.9393 273.701 89.7853 273.655 89.608C273.617 89.4213 273.636 89.2393 273.711 89.062C273.785 88.8753 273.925 88.7167 274.131 88.586L276.077 87.41C276.273 87.2887 276.469 87.1907 276.665 87.116C276.87 87.0413 277.071 87.004 277.267 87.004C277.547 87.004 277.766 87.0787 277.925 87.228C278.093 87.368 278.177 87.5873 278.177 87.886V95.222H279.451C279.74 95.222 279.964 95.2967 280.123 95.446C280.281 95.5953 280.361 95.8147 280.361 96.104C280.361 96.3933 280.281 96.6173 280.123 96.776C279.964 96.9253 279.74 97 279.451 97H274.593Z" fill="#578BB7"/>
<path d="M142.469 131.698C142.17 131.698 141.942 131.618 141.783 131.46C141.624 131.301 141.545 131.082 141.545 130.802C141.545 130.512 141.624 130.293 141.783 130.144C141.942 129.994 142.17 129.92 142.469 129.92H143.883V123.606H144.905L142.861 124.852C142.646 124.982 142.446 125.034 142.259 125.006C142.082 124.978 141.928 124.898 141.797 124.768C141.666 124.637 141.578 124.483 141.531 124.306C141.494 124.119 141.512 123.937 141.587 123.76C141.662 123.573 141.802 123.414 142.007 123.284L143.953 122.108C144.149 121.986 144.345 121.888 144.541 121.814C144.746 121.739 144.947 121.702 145.143 121.702C145.423 121.702 145.642 121.776 145.801 121.926C145.969 122.066 146.053 122.285 146.053 122.584V129.92H147.327C147.616 129.92 147.84 129.994 147.999 130.144C148.158 130.293 148.237 130.512 148.237 130.802C148.237 131.091 148.158 131.315 147.999 131.474C147.84 131.623 147.616 131.698 147.327 131.698H142.469ZM152.88 131.852C152.404 131.852 151.914 131.791 151.41 131.67C150.906 131.548 150.444 131.366 150.024 131.124C149.809 131.002 149.66 130.853 149.576 130.676C149.501 130.498 149.478 130.316 149.506 130.13C149.543 129.943 149.618 129.784 149.73 129.654C149.851 129.514 150 129.425 150.178 129.388C150.364 129.35 150.57 129.392 150.794 129.514C151.12 129.682 151.452 129.812 151.788 129.906C152.133 129.999 152.483 130.046 152.838 130.046C153.192 130.046 153.496 129.985 153.748 129.864C154 129.742 154.191 129.574 154.322 129.36C154.452 129.145 154.518 128.893 154.518 128.604C154.518 128.156 154.373 127.796 154.084 127.526C153.804 127.255 153.421 127.12 152.936 127.12C152.693 127.12 152.446 127.162 152.194 127.246C151.951 127.32 151.699 127.456 151.438 127.652C151.344 127.726 151.223 127.796 151.074 127.862C150.924 127.927 150.766 127.96 150.598 127.96C150.308 127.96 150.094 127.894 149.954 127.764C149.814 127.624 149.744 127.423 149.744 127.162V122.766C149.744 122.458 149.823 122.224 149.982 122.066C150.15 121.907 150.383 121.828 150.682 121.828H155.176C155.484 121.828 155.717 121.907 155.876 122.066C156.034 122.215 156.114 122.434 156.114 122.724C156.114 123.004 156.034 123.223 155.876 123.382C155.717 123.531 155.484 123.606 155.176 123.606H151.83V126.28H151.298C151.531 125.99 151.839 125.766 152.222 125.608C152.604 125.449 153.024 125.37 153.482 125.37C154.107 125.37 154.653 125.505 155.12 125.776C155.586 126.037 155.95 126.406 156.212 126.882C156.473 127.358 156.604 127.908 156.604 128.534C156.604 129.187 156.454 129.766 156.156 130.27C155.857 130.764 155.428 131.152 154.868 131.432C154.308 131.712 153.645 131.852 152.88 131.852Z" fill="#578BB7"/>
<path d="M15.8689 131.698C15.5702 131.698 15.3416 131.618 15.1829 131.46C15.0242 131.301 14.9449 131.082 14.9449 130.802C14.9449 130.512 15.0242 130.293 15.1829 130.144C15.3416 129.994 15.5702 129.92 15.8689 129.92H17.2829V123.606H18.3049L16.2609 124.852C16.0462 124.982 15.8456 125.034 15.6589 125.006C15.4816 124.978 15.3276 124.898 15.1969 124.768C15.0662 124.637 14.9776 124.483 14.9309 124.306C14.8936 124.119 14.9122 123.937 14.9869 123.76C15.0616 123.573 15.2016 123.414 15.4069 123.284L17.3529 122.108C17.5489 121.986 17.7449 121.888 17.9409 121.814C18.1462 121.739 18.3469 121.702 18.5429 121.702C18.8229 121.702 19.0422 121.776 19.2009 121.926C19.3689 122.066 19.4529 122.285 19.4529 122.584V129.92H20.7269C21.0162 129.92 21.2402 129.994 21.3989 130.144C21.5576 130.293 21.6369 130.512 21.6369 130.802C21.6369 131.091 21.5576 131.315 21.3989 131.474C21.2402 131.623 21.0162 131.698 20.7269 131.698H15.8689ZM23.9974 131.698C23.6521 131.698 23.3954 131.618 23.2274 131.46C23.0688 131.292 22.9894 131.049 22.9894 130.732C22.9894 130.526 23.0408 130.335 23.1434 130.158C23.2461 129.98 23.3861 129.798 23.5634 129.612L26.1954 126.84C26.5874 126.42 26.8674 126.046 27.0354 125.72C27.2128 125.393 27.3014 125.066 27.3014 124.74C27.3014 124.329 27.1661 124.016 26.8954 123.802C26.6341 123.587 26.2514 123.48 25.7474 123.48C25.4768 123.48 25.1968 123.522 24.9074 123.606C24.6274 123.68 24.3334 123.806 24.0254 123.984C23.8201 124.096 23.6288 124.138 23.4514 124.11C23.2834 124.072 23.1388 123.993 23.0174 123.872C22.8961 123.741 22.8168 123.587 22.7794 123.41C22.7421 123.232 22.7608 123.055 22.8354 122.878C22.9101 122.7 23.0501 122.551 23.2554 122.43C23.6661 122.178 24.1141 121.991 24.5994 121.87C25.0848 121.739 25.5654 121.674 26.0414 121.674C26.7788 121.674 27.3994 121.786 27.9034 122.01C28.4074 122.224 28.7901 122.542 29.0514 122.962C29.3128 123.382 29.4434 123.895 29.4434 124.502C29.4434 124.894 29.3828 125.276 29.2614 125.65C29.1401 126.023 28.9488 126.401 28.6874 126.784C28.4354 127.157 28.0994 127.558 27.6794 127.988L25.2294 130.48V129.92H29.0234C29.3221 129.92 29.5461 129.994 29.6954 130.144C29.8541 130.293 29.9334 130.512 29.9334 130.802C29.9334 131.091 29.8541 131.315 29.6954 131.474C29.5461 131.623 29.3221 131.698 29.0234 131.698H23.9974Z" fill="#578BB7"/>
<path d="M58.0691 131.698C57.7704 131.698 57.5418 131.618 57.3831 131.46C57.2244 131.301 57.1451 131.082 57.1451 130.802C57.1451 130.512 57.2244 130.293 57.3831 130.144C57.5418 129.994 57.7704 129.92 58.0691 129.92H59.4831V123.606H60.5051L58.4611 124.852C58.2464 124.982 58.0458 125.034 57.8591 125.006C57.6818 124.978 57.5278 124.898 57.3971 124.768C57.2664 124.637 57.1778 124.483 57.1311 124.306C57.0938 124.119 57.1124 123.937 57.1871 123.76C57.2618 123.573 57.4018 123.414 57.6071 123.284L59.5531 122.108C59.7491 121.986 59.9451 121.888 60.1411 121.814C60.3464 121.739 60.5471 121.702 60.7431 121.702C61.0231 121.702 61.2424 121.776 61.4011 121.926C61.5691 122.066 61.6531 122.285 61.6531 122.584V129.92H62.9271C63.2164 129.92 63.4404 129.994 63.5991 130.144C63.7578 130.293 63.8371 130.512 63.8371 130.802C63.8371 131.091 63.7578 131.315 63.5991 131.474C63.4404 131.623 63.2164 131.698 62.9271 131.698H58.0691ZM68.2276 131.852C67.733 131.852 67.229 131.796 66.7156 131.684C66.2116 131.562 65.773 131.394 65.3996 131.18C65.157 131.049 64.989 130.895 64.8956 130.718C64.8116 130.531 64.779 130.349 64.7976 130.172C64.8256 129.994 64.9003 129.84 65.0216 129.71C65.143 129.57 65.297 129.481 65.4836 129.444C65.6796 129.406 65.8943 129.444 66.1276 129.556C66.4916 129.733 66.837 129.859 67.1636 129.934C67.4903 130.008 67.817 130.046 68.1436 130.046C68.517 130.046 68.8296 129.999 69.0816 129.906C69.3336 129.803 69.525 129.658 69.6556 129.472C69.7863 129.285 69.8516 129.052 69.8516 128.772C69.8516 128.38 69.7163 128.086 69.4456 127.89C69.175 127.694 68.7783 127.596 68.2556 127.596H67.4296C67.1216 127.596 66.8836 127.521 66.7156 127.372C66.557 127.213 66.4776 126.998 66.4776 126.728C66.4776 126.448 66.557 126.233 66.7156 126.084C66.8836 125.925 67.1216 125.846 67.4296 125.846H68.0456C68.363 125.846 68.629 125.799 68.8436 125.706C69.0676 125.603 69.2403 125.463 69.3616 125.286C69.4923 125.108 69.5576 124.889 69.5576 124.628C69.5576 124.254 69.427 123.97 69.1656 123.774C68.9136 123.578 68.545 123.48 68.0596 123.48C67.761 123.48 67.467 123.517 67.1776 123.592C66.8883 123.657 66.5756 123.778 66.2396 123.956C66.0343 124.058 65.843 124.091 65.6656 124.054C65.4883 124.016 65.339 123.932 65.2176 123.802C65.1056 123.671 65.031 123.522 64.9936 123.354C64.9656 123.176 64.989 122.999 65.0636 122.822C65.1476 122.644 65.297 122.5 65.5116 122.388C65.913 122.154 66.347 121.977 66.8136 121.856C67.2896 121.734 67.7703 121.674 68.2556 121.674C68.965 121.674 69.5716 121.781 70.0756 121.996C70.5796 122.21 70.967 122.518 71.2376 122.92C71.5083 123.312 71.6436 123.788 71.6436 124.348C71.6436 124.73 71.569 125.08 71.4196 125.398C71.2703 125.715 71.0603 125.986 70.7896 126.21C70.5283 126.424 70.2063 126.578 69.8236 126.672V126.49C70.4863 126.602 71.0043 126.877 71.3776 127.316C71.751 127.754 71.9376 128.305 71.9376 128.968C71.9376 129.556 71.7883 130.069 71.4896 130.508C71.191 130.937 70.7616 131.268 70.2016 131.502C69.651 131.735 68.993 131.852 68.2276 131.852Z" fill="#578BB7"/>
<path d="M99.3899 131.698C99.0912 131.698 98.8626 131.618 98.7039 131.46C98.5452 131.301 98.4659 131.082 98.4659 130.802C98.4659 130.512 98.5452 130.293 98.7039 130.144C98.8626 129.994 99.0912 129.92 99.3899 129.92H100.804V123.606H101.826L99.7819 124.852C99.5672 124.982 99.3666 125.034 99.1799 125.006C99.0026 124.978 98.8486 124.898 98.7179 124.768C98.5872 124.637 98.4986 124.483 98.4519 124.306C98.4146 124.119 98.4332 123.937 98.5079 123.76C98.5826 123.573 98.7226 123.414 98.9279 123.284L100.874 122.108C101.07 121.986 101.266 121.888 101.462 121.814C101.667 121.739 101.868 121.702 102.064 121.702C102.344 121.702 102.563 121.776 102.722 121.926C102.89 122.066 102.974 122.285 102.974 122.584V129.92H104.248C104.537 129.92 104.761 129.994 104.92 130.144C105.079 130.293 105.158 130.512 105.158 130.802C105.158 131.091 105.079 131.315 104.92 131.474C104.761 131.623 104.537 131.698 104.248 131.698H99.3899ZM111.326 131.824C110.99 131.824 110.724 131.73 110.528 131.544C110.342 131.357 110.248 131.086 110.248 130.732V129.934H107.112C106.767 129.934 106.492 129.859 106.286 129.71C106.081 129.551 105.978 129.313 105.978 128.996C105.978 128.809 106.02 128.618 106.104 128.422C106.188 128.226 106.338 127.983 106.552 127.694L110.178 122.416C110.337 122.182 110.514 122.005 110.71 121.884C110.906 121.762 111.13 121.702 111.382 121.702C111.681 121.702 111.919 121.795 112.096 121.982C112.283 122.159 112.376 122.43 112.376 122.794V128.226H112.894C113.202 128.226 113.436 128.3 113.594 128.45C113.753 128.59 113.832 128.8 113.832 129.08C113.832 129.35 113.753 129.56 113.594 129.71C113.445 129.859 113.212 129.934 112.894 129.934H112.376V130.732C112.376 131.086 112.283 131.357 112.096 131.544C111.919 131.73 111.662 131.824 111.326 131.824ZM110.248 128.226V124.376H110.654L107.672 128.758V128.226H110.248Z" fill="#578BB7"/>
<path d="M182.911 131.698C182.612 131.698 182.384 131.618 182.225 131.46C182.066 131.301 181.987 131.082 181.987 130.802C181.987 130.512 182.066 130.293 182.225 130.144C182.384 129.994 182.612 129.92 182.911 129.92H184.325V123.606H185.347L183.303 124.852C183.088 124.982 182.888 125.034 182.701 125.006C182.524 124.978 182.37 124.898 182.239 124.768C182.108 124.637 182.02 124.483 181.973 124.306C181.936 124.119 181.954 123.937 182.029 123.76C182.104 123.573 182.244 123.414 182.449 123.284L184.395 122.108C184.591 121.986 184.787 121.888 184.983 121.814C185.188 121.739 185.389 121.702 185.585 121.702C185.865 121.702 186.084 121.776 186.243 121.926C186.411 122.066 186.495 122.285 186.495 122.584V129.92H187.769C188.058 129.92 188.282 129.994 188.441 130.144C188.6 130.293 188.679 130.512 188.679 130.802C188.679 131.091 188.6 131.315 188.441 131.474C188.282 131.623 188.058 131.698 187.769 131.698H182.911ZM193.685 131.852C192.845 131.852 192.131 131.656 191.543 131.264C190.955 130.872 190.507 130.307 190.199 129.57C189.891 128.832 189.737 127.941 189.737 126.896C189.737 126.065 189.835 125.328 190.031 124.684C190.237 124.04 190.526 123.494 190.899 123.046C191.273 122.598 191.73 122.257 192.271 122.024C192.822 121.79 193.438 121.674 194.119 121.674C194.521 121.674 194.927 121.73 195.337 121.842C195.748 121.954 196.131 122.122 196.485 122.346C196.672 122.439 196.798 122.574 196.863 122.752C196.938 122.92 196.961 123.092 196.933 123.27C196.905 123.447 196.835 123.606 196.723 123.746C196.611 123.876 196.467 123.965 196.289 124.012C196.121 124.049 195.925 124.016 195.701 123.914C195.412 123.755 195.132 123.643 194.861 123.578C194.6 123.512 194.343 123.48 194.091 123.48C193.597 123.48 193.177 123.592 192.831 123.816C192.486 124.04 192.225 124.376 192.047 124.824C191.879 125.272 191.795 125.827 191.795 126.49V127.4H191.599C191.683 126.952 191.837 126.574 192.061 126.266C192.295 125.948 192.589 125.706 192.943 125.538C193.298 125.37 193.69 125.286 194.119 125.286C194.679 125.286 195.174 125.426 195.603 125.706C196.042 125.976 196.387 126.354 196.639 126.84C196.891 127.316 197.017 127.862 197.017 128.478C197.017 129.131 196.877 129.714 196.597 130.228C196.317 130.732 195.925 131.128 195.421 131.418C194.927 131.707 194.348 131.852 193.685 131.852ZM193.573 130.158C193.863 130.158 194.115 130.092 194.329 129.962C194.553 129.831 194.721 129.644 194.833 129.402C194.955 129.159 195.015 128.879 195.015 128.562C195.015 128.244 194.955 127.969 194.833 127.736C194.721 127.493 194.553 127.306 194.329 127.176C194.115 127.036 193.863 126.966 193.573 126.966C193.284 126.966 193.027 127.036 192.803 127.176C192.589 127.306 192.421 127.493 192.299 127.736C192.178 127.969 192.117 128.244 192.117 128.562C192.117 128.879 192.178 129.159 192.299 129.402C192.421 129.644 192.589 129.831 192.803 129.962C193.027 130.092 193.284 130.158 193.573 130.158Z" fill="#578BB7"/>
<path d="M221.594 131.698C221.295 131.698 221.067 131.618 220.908 131.46C220.749 131.301 220.67 131.082 220.67 130.802C220.67 130.512 220.749 130.293 220.908 130.144C221.067 129.994 221.295 129.92 221.594 129.92H223.008V123.606H224.03L221.986 124.852C221.771 124.982 221.571 125.034 221.384 125.006C221.207 124.978 221.053 124.898 220.922 124.768C220.791 124.637 220.703 124.483 220.656 124.306C220.619 124.119 220.637 123.937 220.712 123.76C220.787 123.573 220.927 123.414 221.132 123.284L223.078 122.108C223.274 121.986 223.47 121.888 223.666 121.814C223.871 121.739 224.072 121.702 224.268 121.702C224.548 121.702 224.767 121.776 224.926 121.926C225.094 122.066 225.178 122.285 225.178 122.584V129.92H226.452C226.741 129.92 226.965 129.994 227.124 130.144C227.283 130.293 227.362 130.512 227.362 130.802C227.362 131.091 227.283 131.315 227.124 131.474C226.965 131.623 226.741 131.698 226.452 131.698H221.594ZM230.241 131.824C229.97 131.824 229.751 131.763 229.583 131.642C229.415 131.511 229.317 131.343 229.289 131.138C229.261 130.932 229.317 130.704 229.457 130.452L233.503 122.948V123.62H229.275C228.967 123.62 228.733 123.545 228.575 123.396C228.416 123.237 228.337 123.013 228.337 122.724C228.337 122.434 228.416 122.215 228.575 122.066C228.733 121.907 228.967 121.828 229.275 121.828H234.609C234.907 121.828 235.15 121.907 235.337 122.066C235.533 122.224 235.631 122.448 235.631 122.738C235.631 122.99 235.593 123.209 235.519 123.396C235.453 123.582 235.365 123.783 235.253 123.998L231.473 131.124C231.342 131.366 231.179 131.544 230.983 131.656C230.787 131.768 230.539 131.824 230.241 131.824Z" fill="#578BB7"/>
<path d="M266.432 130.826C266.133 130.826 265.905 130.746 265.746 130.588C265.587 130.429 265.508 130.21 265.508 129.93C265.508 129.64 265.587 129.421 265.746 129.272C265.905 129.122 266.133 129.048 266.432 129.048H267.846V122.734H268.868L266.824 123.98C266.609 124.11 266.409 124.162 266.222 124.134C266.045 124.106 265.891 124.026 265.76 123.896C265.629 123.765 265.541 123.611 265.494 123.434C265.457 123.247 265.475 123.065 265.55 122.888C265.625 122.701 265.765 122.542 265.97 122.412L267.916 121.236C268.112 121.114 268.308 121.016 268.504 120.942C268.709 120.867 268.91 120.83 269.106 120.83C269.386 120.83 269.605 120.904 269.764 121.054C269.932 121.194 270.016 121.413 270.016 121.712V129.048H271.29C271.579 129.048 271.803 129.122 271.962 129.272C272.121 129.421 272.2 129.64 272.2 129.93C272.2 130.219 272.121 130.443 271.962 130.602C271.803 130.751 271.579 130.826 271.29 130.826H266.432ZM276.828 130.98C276.044 130.98 275.372 130.868 274.812 130.644C274.252 130.42 273.823 130.098 273.524 129.678C273.226 129.248 273.076 128.735 273.076 128.138C273.076 127.671 273.17 127.256 273.356 126.892C273.552 126.528 273.818 126.234 274.154 126.01C274.49 125.786 274.868 125.646 275.288 125.59V125.954C274.7 125.823 274.224 125.538 273.86 125.1C273.506 124.652 273.328 124.115 273.328 123.49C273.328 122.93 273.468 122.449 273.748 122.048C274.038 121.646 274.444 121.338 274.966 121.124C275.498 120.909 276.119 120.802 276.828 120.802C277.547 120.802 278.168 120.909 278.69 121.124C279.213 121.338 279.619 121.646 279.908 122.048C280.198 122.449 280.342 122.93 280.342 123.49C280.342 123.91 280.258 124.292 280.09 124.638C279.932 124.983 279.703 125.268 279.404 125.492C279.115 125.716 278.779 125.86 278.396 125.926V125.59C279.04 125.683 279.563 125.958 279.964 126.416C280.375 126.873 280.58 127.447 280.58 128.138C280.58 128.735 280.431 129.248 280.132 129.678C279.834 130.098 279.404 130.42 278.844 130.644C278.284 130.868 277.612 130.98 276.828 130.98ZM276.828 129.314C277.407 129.314 277.846 129.202 278.144 128.978C278.443 128.754 278.592 128.422 278.592 127.984C278.592 127.545 278.443 127.218 278.144 127.004C277.846 126.78 277.407 126.668 276.828 126.668C276.25 126.668 275.811 126.78 275.512 127.004C275.214 127.218 275.064 127.545 275.064 127.984C275.064 128.422 275.214 128.754 275.512 128.978C275.811 129.202 276.25 129.314 276.828 129.314ZM276.828 125.002C277.146 125.002 277.416 124.95 277.64 124.848C277.874 124.745 278.046 124.596 278.158 124.4C278.28 124.204 278.34 123.98 278.34 123.728C278.34 123.336 278.205 123.028 277.934 122.804C277.673 122.58 277.304 122.468 276.828 122.468C276.352 122.468 275.984 122.58 275.722 122.804C275.461 123.028 275.33 123.336 275.33 123.728C275.33 124.12 275.461 124.432 275.722 124.666C275.984 124.89 276.352 125.002 276.828 125.002Z" fill="#578BB7"/>
<path d="M140.445 196.213C140.099 196.213 139.843 196.134 139.675 195.975C139.516 195.807 139.437 195.565 139.437 195.247C139.437 195.042 139.488 194.851 139.591 194.673C139.693 194.496 139.833 194.314 140.011 194.127L142.643 191.355C143.035 190.935 143.315 190.562 143.483 190.235C143.66 189.909 143.749 189.582 143.749 189.255C143.749 188.845 143.613 188.532 143.343 188.317C143.081 188.103 142.699 187.995 142.195 187.995C141.924 187.995 141.644 188.037 141.355 188.121C141.075 188.196 140.781 188.322 140.473 188.499C140.267 188.611 140.076 188.653 139.899 188.625C139.731 188.588 139.586 188.509 139.465 188.387C139.343 188.257 139.264 188.103 139.227 187.925C139.189 187.748 139.208 187.571 139.283 187.393C139.357 187.216 139.497 187.067 139.703 186.945C140.113 186.693 140.561 186.507 141.047 186.385C141.532 186.255 142.013 186.189 142.489 186.189C143.226 186.189 143.847 186.301 144.351 186.525C144.855 186.74 145.237 187.057 145.499 187.477C145.76 187.897 145.891 188.411 145.891 189.017C145.891 189.409 145.83 189.792 145.709 190.165C145.587 190.539 145.396 190.917 145.135 191.299C144.883 191.673 144.547 192.074 144.127 192.503L141.677 194.995V194.435H145.471C145.769 194.435 145.993 194.51 146.143 194.659C146.301 194.809 146.381 195.028 146.381 195.317C146.381 195.607 146.301 195.831 146.143 195.989C145.993 196.139 145.769 196.213 145.471 196.213H140.445ZM150.295 196.367C149.894 196.367 149.488 196.311 149.077 196.199C148.667 196.087 148.284 195.919 147.929 195.695C147.743 195.602 147.612 195.471 147.537 195.303C147.472 195.126 147.453 194.949 147.481 194.771C147.509 194.594 147.579 194.44 147.691 194.309C147.803 194.169 147.943 194.081 148.111 194.043C148.289 193.997 148.489 194.025 148.713 194.127C149.003 194.286 149.278 194.398 149.539 194.463C149.81 194.529 150.071 194.561 150.323 194.561C150.818 194.561 151.238 194.449 151.583 194.225C151.929 194.001 152.185 193.665 152.353 193.217C152.531 192.76 152.619 192.205 152.619 191.551V190.641H152.815C152.741 191.08 152.587 191.458 152.353 191.775C152.12 192.093 151.826 192.335 151.471 192.503C151.117 192.671 150.725 192.755 150.295 192.755C149.745 192.755 149.25 192.62 148.811 192.349C148.373 192.069 148.027 191.687 147.775 191.201C147.523 190.716 147.397 190.17 147.397 189.563C147.397 188.91 147.537 188.331 147.817 187.827C148.097 187.314 148.489 186.913 148.993 186.623C149.497 186.334 150.076 186.189 150.729 186.189C151.579 186.189 152.293 186.385 152.871 186.777C153.459 187.16 153.907 187.725 154.215 188.471C154.523 189.209 154.677 190.1 154.677 191.145C154.677 191.976 154.575 192.713 154.369 193.357C154.173 194.001 153.889 194.547 153.515 194.995C153.142 195.443 152.68 195.784 152.129 196.017C151.588 196.251 150.977 196.367 150.295 196.367ZM150.855 191.061C151.145 191.061 151.397 190.996 151.611 190.865C151.835 190.725 152.008 190.534 152.129 190.291C152.251 190.049 152.311 189.773 152.311 189.465C152.311 189.148 152.251 188.868 152.129 188.625C152.008 188.383 151.835 188.196 151.611 188.065C151.397 187.935 151.145 187.869 150.855 187.869C150.566 187.869 150.314 187.935 150.099 188.065C149.885 188.196 149.712 188.383 149.581 188.625C149.46 188.868 149.399 189.148 149.399 189.465C149.399 189.773 149.46 190.049 149.581 190.291C149.712 190.534 149.885 190.725 150.099 190.865C150.314 190.996 150.566 191.061 150.855 191.061Z" fill="#578BB7"/>
<path d="M15.6029 196.213C15.2576 196.213 15.0009 196.134 14.8329 195.975C14.6742 195.807 14.5949 195.565 14.5949 195.247C14.5949 195.042 14.6462 194.851 14.7489 194.673C14.8516 194.496 14.9916 194.314 15.1689 194.127L17.8009 191.355C18.1929 190.935 18.4729 190.562 18.6409 190.235C18.8182 189.909 18.9069 189.582 18.9069 189.255C18.9069 188.845 18.7716 188.532 18.5009 188.317C18.2396 188.103 17.8569 187.995 17.3529 187.995C17.0822 187.995 16.8022 188.037 16.5129 188.121C16.2329 188.196 15.9389 188.322 15.6309 188.499C15.4256 188.611 15.2342 188.653 15.0569 188.625C14.8889 188.588 14.7442 188.509 14.6229 188.387C14.5016 188.257 14.4222 188.103 14.3849 187.925C14.3476 187.748 14.3662 187.571 14.4409 187.393C14.5156 187.216 14.6556 187.067 14.8609 186.945C15.2716 186.693 15.7196 186.507 16.2049 186.385C16.6902 186.255 17.1709 186.189 17.6469 186.189C18.3842 186.189 19.0049 186.301 19.5089 186.525C20.0129 186.74 20.3956 187.057 20.6569 187.477C20.9182 187.897 21.0489 188.411 21.0489 189.017C21.0489 189.409 20.9882 189.792 20.8669 190.165C20.7456 190.539 20.5542 190.917 20.2929 191.299C20.0409 191.673 19.7049 192.074 19.2849 192.503L16.8349 194.995V194.435H20.6289C20.9276 194.435 21.1516 194.51 21.3009 194.659C21.4596 194.809 21.5389 195.028 21.5389 195.317C21.5389 195.607 21.4596 195.831 21.3009 195.989C21.1516 196.139 20.9276 196.213 20.6289 196.213H15.6029ZM26.6434 196.367C25.8034 196.367 25.0894 196.171 24.5014 195.779C23.9134 195.387 23.4654 194.823 23.1574 194.085C22.8494 193.348 22.6954 192.457 22.6954 191.411C22.6954 190.581 22.7934 189.843 22.9894 189.199C23.1948 188.555 23.4841 188.009 23.8574 187.561C24.2308 187.113 24.6881 186.773 25.2294 186.539C25.7801 186.306 26.3961 186.189 27.0774 186.189C27.4788 186.189 27.8848 186.245 28.2954 186.357C28.7061 186.469 29.0888 186.637 29.4434 186.861C29.6301 186.955 29.7561 187.09 29.8214 187.267C29.8961 187.435 29.9194 187.608 29.8914 187.785C29.8634 187.963 29.7934 188.121 29.6814 188.261C29.5694 188.392 29.4248 188.481 29.2474 188.527C29.0794 188.565 28.8834 188.532 28.6594 188.429C28.3701 188.271 28.0901 188.159 27.8194 188.093C27.5581 188.028 27.3014 187.995 27.0494 187.995C26.5548 187.995 26.1348 188.107 25.7894 188.331C25.4441 188.555 25.1828 188.891 25.0054 189.339C24.8374 189.787 24.7534 190.343 24.7534 191.005V191.915H24.5574C24.6414 191.467 24.7954 191.089 25.0194 190.781C25.2528 190.464 25.5468 190.221 25.9014 190.053C26.2561 189.885 26.6481 189.801 27.0774 189.801C27.6374 189.801 28.1321 189.941 28.5614 190.221C29.0001 190.492 29.3454 190.87 29.5974 191.355C29.8494 191.831 29.9754 192.377 29.9754 192.993C29.9754 193.647 29.8354 194.23 29.5554 194.743C29.2754 195.247 28.8834 195.644 28.3794 195.933C27.8848 196.223 27.3061 196.367 26.6434 196.367ZM26.5314 194.673C26.8208 194.673 27.0728 194.608 27.2874 194.477C27.5114 194.347 27.6794 194.16 27.7914 193.917C27.9128 193.675 27.9734 193.395 27.9734 193.077C27.9734 192.76 27.9128 192.485 27.7914 192.251C27.6794 192.009 27.5114 191.822 27.2874 191.691C27.0728 191.551 26.8208 191.481 26.5314 191.481C26.2421 191.481 25.9854 191.551 25.7614 191.691C25.5468 191.822 25.3788 192.009 25.2574 192.251C25.1361 192.485 25.0754 192.76 25.0754 193.077C25.0754 193.395 25.1361 193.675 25.2574 193.917C25.3788 194.16 25.5468 194.347 25.7614 194.477C25.9854 194.608 26.2421 194.673 26.5314 194.673Z" fill="#578BB7"/>
<path d="M57.8031 196.213C57.4578 196.213 57.2011 196.134 57.0331 195.975C56.8744 195.807 56.7951 195.565 56.7951 195.247C56.7951 195.042 56.8464 194.851 56.9491 194.673C57.0518 194.496 57.1918 194.314 57.3691 194.127L60.0011 191.355C60.3931 190.935 60.6731 190.562 60.8411 190.235C61.0184 189.909 61.1071 189.582 61.1071 189.255C61.1071 188.845 60.9718 188.532 60.7011 188.317C60.4398 188.103 60.0571 187.995 59.5531 187.995C59.2824 187.995 59.0024 188.037 58.7131 188.121C58.4331 188.196 58.1391 188.322 57.8311 188.499C57.6258 188.611 57.4344 188.653 57.2571 188.625C57.0891 188.588 56.9444 188.509 56.8231 188.387C56.7018 188.257 56.6224 188.103 56.5851 187.925C56.5478 187.748 56.5664 187.571 56.6411 187.393C56.7158 187.216 56.8558 187.067 57.0611 186.945C57.4718 186.693 57.9198 186.507 58.4051 186.385C58.8904 186.255 59.3711 186.189 59.8471 186.189C60.5844 186.189 61.2051 186.301 61.7091 186.525C62.2131 186.74 62.5958 187.057 62.8571 187.477C63.1184 187.897 63.2491 188.411 63.2491 189.017C63.2491 189.409 63.1884 189.792 63.0671 190.165C62.9458 190.539 62.7544 190.917 62.4931 191.299C62.2411 191.673 61.9051 192.074 61.4851 192.503L59.0351 194.995V194.435H62.8291C63.1278 194.435 63.3518 194.51 63.5011 194.659C63.6598 194.809 63.7391 195.028 63.7391 195.317C63.7391 195.607 63.6598 195.831 63.5011 195.989C63.3518 196.139 63.1278 196.213 62.8291 196.213H57.8031ZM66.7156 196.339C66.445 196.339 66.2256 196.279 66.0576 196.157C65.8896 196.027 65.7916 195.859 65.7636 195.653C65.7356 195.448 65.7916 195.219 65.9316 194.967L69.9776 187.463V188.135H65.7496C65.4416 188.135 65.2083 188.061 65.0496 187.911C64.891 187.753 64.8116 187.529 64.8116 187.239C64.8116 186.95 64.891 186.731 65.0496 186.581C65.2083 186.423 65.4416 186.343 65.7496 186.343H71.0836C71.3823 186.343 71.625 186.423 71.8116 186.581C72.0076 186.74 72.1056 186.964 72.1056 187.253C72.1056 187.505 72.0683 187.725 71.9936 187.911C71.9283 188.098 71.8396 188.299 71.7276 188.513L67.9476 195.639C67.817 195.882 67.6536 196.059 67.4576 196.171C67.2616 196.283 67.0143 196.339 66.7156 196.339Z" fill="#578BB7"/>
<path d="M98.245 196.213C97.8997 196.213 97.643 196.134 97.475 195.975C97.3163 195.807 97.237 195.565 97.237 195.247C97.237 195.042 97.2883 194.851 97.391 194.673C97.4937 194.496 97.6337 194.314 97.811 194.127L100.443 191.355C100.835 190.935 101.115 190.562 101.283 190.235C101.46 189.909 101.549 189.582 101.549 189.255C101.549 188.845 101.414 188.532 101.143 188.317C100.882 188.103 100.499 187.995 99.995 187.995C99.7243 187.995 99.4443 188.037 99.155 188.121C98.875 188.196 98.581 188.322 98.273 188.499C98.0677 188.611 97.8763 188.653 97.699 188.625C97.531 188.588 97.3863 188.509 97.265 188.387C97.1437 188.257 97.0643 188.103 97.027 187.925C96.9897 187.748 97.0083 187.571 97.083 187.393C97.1577 187.216 97.2977 187.067 97.503 186.945C97.9137 186.693 98.3617 186.507 98.847 186.385C99.3323 186.255 99.813 186.189 100.289 186.189C101.026 186.189 101.647 186.301 102.151 186.525C102.655 186.74 103.038 187.057 103.299 187.477C103.56 187.897 103.691 188.411 103.691 189.017C103.691 189.409 103.63 189.792 103.509 190.165C103.388 190.539 103.196 190.917 102.935 191.299C102.683 191.673 102.347 192.074 101.927 192.503L99.477 194.995V194.435H103.271C103.57 194.435 103.794 194.51 103.943 194.659C104.102 194.809 104.181 195.028 104.181 195.317C104.181 195.607 104.102 195.831 103.943 195.989C103.794 196.139 103.57 196.213 103.271 196.213H98.245ZM108.908 196.367C108.124 196.367 107.452 196.255 106.892 196.031C106.332 195.807 105.902 195.485 105.604 195.065C105.305 194.636 105.156 194.123 105.156 193.525C105.156 193.059 105.249 192.643 105.436 192.279C105.632 191.915 105.898 191.621 106.234 191.397C106.57 191.173 106.948 191.033 107.368 190.977V191.341C106.78 191.211 106.304 190.926 105.94 190.487C105.585 190.039 105.408 189.503 105.408 188.877C105.408 188.317 105.548 187.837 105.828 187.435C106.117 187.034 106.523 186.726 107.046 186.511C107.578 186.297 108.198 186.189 108.908 186.189C109.626 186.189 110.247 186.297 110.77 186.511C111.292 186.726 111.698 187.034 111.988 187.435C112.277 187.837 112.422 188.317 112.422 188.877C112.422 189.297 112.338 189.68 112.17 190.025C112.011 190.371 111.782 190.655 111.484 190.879C111.194 191.103 110.858 191.248 110.476 191.313V190.977C111.12 191.071 111.642 191.346 112.044 191.803C112.454 192.261 112.66 192.835 112.66 193.525C112.66 194.123 112.51 194.636 112.212 195.065C111.913 195.485 111.484 195.807 110.924 196.031C110.364 196.255 109.692 196.367 108.908 196.367ZM108.908 194.701C109.486 194.701 109.925 194.589 110.224 194.365C110.522 194.141 110.672 193.81 110.672 193.371C110.672 192.933 110.522 192.606 110.224 192.391C109.925 192.167 109.486 192.055 108.908 192.055C108.329 192.055 107.89 192.167 107.592 192.391C107.293 192.606 107.144 192.933 107.144 193.371C107.144 193.81 107.293 194.141 107.592 194.365C107.89 194.589 108.329 194.701 108.908 194.701ZM108.908 190.389C109.225 190.389 109.496 190.338 109.72 190.235C109.953 190.133 110.126 189.983 110.238 189.787C110.359 189.591 110.42 189.367 110.42 189.115C110.42 188.723 110.284 188.415 110.014 188.191C109.752 187.967 109.384 187.855 108.908 187.855C108.432 187.855 108.063 187.967 107.802 188.191C107.54 188.415 107.41 188.723 107.41 189.115C107.41 189.507 107.54 189.82 107.802 190.053C108.063 190.277 108.432 190.389 108.908 190.389Z" fill="#578BB7"/>
<path d="M184.675 196.367C184.18 196.367 183.676 196.311 183.163 196.199C182.659 196.078 182.22 195.91 181.847 195.695C181.604 195.565 181.436 195.411 181.343 195.233C181.259 195.047 181.226 194.865 181.245 194.687C181.273 194.51 181.348 194.356 181.469 194.225C181.59 194.085 181.744 193.997 181.931 193.959C182.127 193.922 182.342 193.959 182.575 194.071C182.939 194.249 183.284 194.375 183.611 194.449C183.938 194.524 184.264 194.561 184.591 194.561C184.964 194.561 185.277 194.515 185.529 194.421C185.781 194.319 185.972 194.174 186.103 193.987C186.234 193.801 186.299 193.567 186.299 193.287C186.299 192.895 186.164 192.601 185.893 192.405C185.622 192.209 185.226 192.111 184.703 192.111H183.877C183.569 192.111 183.331 192.037 183.163 191.887C183.004 191.729 182.925 191.514 182.925 191.243C182.925 190.963 183.004 190.749 183.163 190.599C183.331 190.441 183.569 190.361 183.877 190.361H184.493C184.81 190.361 185.076 190.315 185.291 190.221C185.515 190.119 185.688 189.979 185.809 189.801C185.94 189.624 186.005 189.405 186.005 189.143C186.005 188.77 185.874 188.485 185.613 188.289C185.361 188.093 184.992 187.995 184.507 187.995C184.208 187.995 183.914 188.033 183.625 188.107C183.336 188.173 183.023 188.294 182.687 188.471C182.482 188.574 182.29 188.607 182.113 188.569C181.936 188.532 181.786 188.448 181.665 188.317C181.553 188.187 181.478 188.037 181.441 187.869C181.413 187.692 181.436 187.515 181.511 187.337C181.595 187.16 181.744 187.015 181.959 186.903C182.36 186.67 182.794 186.493 183.261 186.371C183.737 186.25 184.218 186.189 184.703 186.189C185.412 186.189 186.019 186.297 186.523 186.511C187.027 186.726 187.414 187.034 187.685 187.435C187.956 187.827 188.091 188.303 188.091 188.863C188.091 189.246 188.016 189.596 187.867 189.913C187.718 190.231 187.508 190.501 187.237 190.725C186.976 190.94 186.654 191.094 186.271 191.187V191.005C186.934 191.117 187.452 191.393 187.825 191.831C188.198 192.27 188.385 192.821 188.385 193.483C188.385 194.071 188.236 194.585 187.937 195.023C187.638 195.453 187.209 195.784 186.649 196.017C186.098 196.251 185.44 196.367 184.675 196.367ZM193.307 196.367C192.113 196.367 191.198 195.924 190.563 195.037C189.938 194.141 189.625 192.877 189.625 191.243C189.625 190.151 189.765 189.232 190.045 188.485C190.335 187.729 190.75 187.16 191.291 186.777C191.842 186.385 192.514 186.189 193.307 186.189C194.511 186.189 195.426 186.623 196.051 187.491C196.677 188.35 196.989 189.601 196.989 191.243C196.989 192.335 196.845 193.264 196.555 194.029C196.275 194.785 195.865 195.364 195.323 195.765C194.782 196.167 194.11 196.367 193.307 196.367ZM193.307 194.603C193.849 194.603 194.25 194.337 194.511 193.805C194.773 193.264 194.903 192.41 194.903 191.243C194.903 190.077 194.773 189.237 194.511 188.723C194.25 188.21 193.849 187.953 193.307 187.953C192.766 187.953 192.365 188.21 192.103 188.723C191.842 189.237 191.711 190.077 191.711 191.243C191.711 192.41 191.842 193.264 192.103 193.805C192.365 194.337 192.766 194.603 193.307 194.603Z" fill="#578BB7"/>
<path d="M223.358 196.367C222.863 196.367 222.359 196.311 221.846 196.199C221.342 196.078 220.903 195.91 220.53 195.695C220.287 195.565 220.119 195.411 220.026 195.233C219.942 195.047 219.909 194.865 219.928 194.687C219.956 194.51 220.031 194.356 220.152 194.225C220.273 194.085 220.427 193.997 220.614 193.959C220.81 193.922 221.025 193.959 221.258 194.071C221.622 194.249 221.967 194.375 222.294 194.449C222.621 194.524 222.947 194.561 223.274 194.561C223.647 194.561 223.96 194.515 224.212 194.421C224.464 194.319 224.655 194.174 224.786 193.987C224.917 193.801 224.982 193.567 224.982 193.287C224.982 192.895 224.847 192.601 224.576 192.405C224.305 192.209 223.909 192.111 223.386 192.111H222.56C222.252 192.111 222.014 192.037 221.846 191.887C221.687 191.729 221.608 191.514 221.608 191.243C221.608 190.963 221.687 190.749 221.846 190.599C222.014 190.441 222.252 190.361 222.56 190.361H223.176C223.493 190.361 223.759 190.315 223.974 190.221C224.198 190.119 224.371 189.979 224.492 189.801C224.623 189.624 224.688 189.405 224.688 189.143C224.688 188.77 224.557 188.485 224.296 188.289C224.044 188.093 223.675 187.995 223.19 187.995C222.891 187.995 222.597 188.033 222.308 188.107C222.019 188.173 221.706 188.294 221.37 188.471C221.165 188.574 220.973 188.607 220.796 188.569C220.619 188.532 220.469 188.448 220.348 188.317C220.236 188.187 220.161 188.037 220.124 187.869C220.096 187.692 220.119 187.515 220.194 187.337C220.278 187.16 220.427 187.015 220.642 186.903C221.043 186.67 221.477 186.493 221.944 186.371C222.42 186.25 222.901 186.189 223.386 186.189C224.095 186.189 224.702 186.297 225.206 186.511C225.71 186.726 226.097 187.034 226.368 187.435C226.639 187.827 226.774 188.303 226.774 188.863C226.774 189.246 226.699 189.596 226.55 189.913C226.401 190.231 226.191 190.501 225.92 190.725C225.659 190.94 225.337 191.094 224.954 191.187V191.005C225.617 191.117 226.135 191.393 226.508 191.831C226.881 192.27 227.068 192.821 227.068 193.483C227.068 194.071 226.919 194.585 226.62 195.023C226.321 195.453 225.892 195.784 225.332 196.017C224.781 196.251 224.123 196.367 223.358 196.367ZM229.989 196.213C229.69 196.213 229.461 196.134 229.303 195.975C229.144 195.817 229.065 195.597 229.065 195.317C229.065 195.028 229.144 194.809 229.303 194.659C229.461 194.51 229.69 194.435 229.989 194.435H231.403V188.121H232.425L230.381 189.367C230.166 189.498 229.965 189.549 229.779 189.521C229.601 189.493 229.447 189.414 229.317 189.283C229.186 189.153 229.097 188.999 229.051 188.821C229.013 188.635 229.032 188.453 229.107 188.275C229.181 188.089 229.321 187.93 229.527 187.799L231.473 186.623C231.669 186.502 231.865 186.404 232.061 186.329C232.266 186.255 232.467 186.217 232.663 186.217C232.943 186.217 233.162 186.292 233.321 186.441C233.489 186.581 233.573 186.801 233.573 187.099V194.435H234.847C235.136 194.435 235.36 194.51 235.519 194.659C235.677 194.809 235.757 195.028 235.757 195.317C235.757 195.607 235.677 195.831 235.519 195.989C235.36 196.139 235.136 196.213 234.847 196.213H229.989Z" fill="#578BB7"/>
<path d="M140.932 160C140.587 160 140.33 159.921 140.162 159.762C140.003 159.594 139.924 159.351 139.924 159.034C139.924 158.829 139.975 158.637 140.078 158.46C140.181 158.283 140.321 158.101 140.498 157.914L143.13 155.142C143.522 154.722 143.802 154.349 143.97 154.022C144.147 153.695 144.236 153.369 144.236 153.042C144.236 152.631 144.101 152.319 143.83 152.104C143.569 151.889 143.186 151.782 142.682 151.782C142.411 151.782 142.131 151.824 141.842 151.908C141.562 151.983 141.268 152.109 140.96 152.286C140.755 152.398 140.563 152.44 140.386 152.412C140.218 152.375 140.073 152.295 139.952 152.174C139.831 152.043 139.751 151.889 139.714 151.712C139.677 151.535 139.695 151.357 139.77 151.18C139.845 151.003 139.985 150.853 140.19 150.732C140.601 150.48 141.049 150.293 141.534 150.172C142.019 150.041 142.5 149.976 142.976 149.976C143.713 149.976 144.334 150.088 144.838 150.312C145.342 150.527 145.725 150.844 145.986 151.264C146.247 151.684 146.378 152.197 146.378 152.804C146.378 153.196 146.317 153.579 146.196 153.952C146.075 154.325 145.883 154.703 145.622 155.086C145.37 155.459 145.034 155.861 144.614 156.29L142.164 158.782V158.222H145.958C146.257 158.222 146.481 158.297 146.63 158.446C146.789 158.595 146.868 158.815 146.868 159.104C146.868 159.393 146.789 159.617 146.63 159.776C146.481 159.925 146.257 160 145.958 160H140.932ZM149.327 160C148.981 160 148.725 159.921 148.557 159.762C148.398 159.594 148.319 159.351 148.319 159.034C148.319 158.829 148.37 158.637 148.473 158.46C148.575 158.283 148.715 158.101 148.893 157.914L151.525 155.142C151.917 154.722 152.197 154.349 152.365 154.022C152.542 153.695 152.631 153.369 152.631 153.042C152.631 152.631 152.495 152.319 152.225 152.104C151.963 151.889 151.581 151.782 151.077 151.782C150.806 151.782 150.526 151.824 150.237 151.908C149.957 151.983 149.663 152.109 149.355 152.286C149.149 152.398 148.958 152.44 148.781 152.412C148.613 152.375 148.468 152.295 148.347 152.174C148.225 152.043 148.146 151.889 148.109 151.712C148.071 151.535 148.09 151.357 148.165 151.18C148.239 151.003 148.379 150.853 148.585 150.732C148.995 150.48 149.443 150.293 149.929 150.172C150.414 150.041 150.895 149.976 151.371 149.976C152.108 149.976 152.729 150.088 153.233 150.312C153.737 150.527 154.119 150.844 154.381 151.264C154.642 151.684 154.773 152.197 154.773 152.804C154.773 153.196 154.712 153.579 154.591 153.952C154.469 154.325 154.278 154.703 154.017 155.086C153.765 155.459 153.429 155.861 153.009 156.29L150.559 158.782V158.222H154.353C154.651 158.222 154.875 158.297 155.025 158.446C155.183 158.595 155.263 158.815 155.263 159.104C155.263 159.393 155.183 159.617 155.025 159.776C154.875 159.925 154.651 160 154.353 160H149.327Z" fill="#578BB7"/>
<path d="M15.8689 159.596C15.5702 159.596 15.3416 159.517 15.1829 159.358C15.0242 159.2 14.9449 158.98 14.9449 158.7C14.9449 158.411 15.0242 158.192 15.1829 158.042C15.3416 157.893 15.5702 157.818 15.8689 157.818H17.2829V151.504H18.3049L16.2609 152.75C16.0462 152.881 15.8456 152.932 15.6589 152.904C15.4816 152.876 15.3276 152.797 15.1969 152.666C15.0662 152.536 14.9776 152.382 14.9309 152.204C14.8936 152.018 14.9122 151.836 14.9869 151.658C15.0616 151.472 15.2016 151.313 15.4069 151.182L17.3529 150.006C17.5489 149.885 17.7449 149.787 17.9409 149.712C18.1462 149.638 18.3469 149.6 18.5429 149.6C18.8229 149.6 19.0422 149.675 19.2009 149.824C19.3689 149.964 19.4529 150.184 19.4529 150.482V157.818H20.7269C21.0162 157.818 21.2402 157.893 21.3989 158.042C21.5576 158.192 21.6369 158.411 21.6369 158.7C21.6369 158.99 21.5576 159.214 21.3989 159.372C21.2402 159.522 21.0162 159.596 20.7269 159.596H15.8689ZM25.4534 159.75C25.0521 159.75 24.6461 159.694 24.2354 159.582C23.8248 159.47 23.4421 159.302 23.0874 159.078C22.9008 158.985 22.7701 158.854 22.6954 158.686C22.6301 158.509 22.6114 158.332 22.6394 158.154C22.6674 157.977 22.7374 157.823 22.8494 157.692C22.9614 157.552 23.1014 157.464 23.2694 157.426C23.4468 157.38 23.6474 157.408 23.8714 157.51C24.1608 157.669 24.4361 157.781 24.6974 157.846C24.9681 157.912 25.2294 157.944 25.4814 157.944C25.9761 157.944 26.3961 157.832 26.7414 157.608C27.0868 157.384 27.3434 157.048 27.5114 156.6C27.6888 156.143 27.7774 155.588 27.7774 154.934V154.024H27.9734C27.8988 154.463 27.7448 154.841 27.5114 155.158C27.2781 155.476 26.9841 155.718 26.6294 155.886C26.2748 156.054 25.8828 156.138 25.4534 156.138C24.9028 156.138 24.4081 156.003 23.9694 155.732C23.5308 155.452 23.1854 155.07 22.9334 154.584C22.6814 154.099 22.5554 153.553 22.5554 152.946C22.5554 152.293 22.6954 151.714 22.9754 151.21C23.2554 150.697 23.6474 150.296 24.1514 150.006C24.6554 149.717 25.2341 149.572 25.8874 149.572C26.7368 149.572 27.4508 149.768 28.0294 150.16C28.6174 150.543 29.0654 151.108 29.3734 151.854C29.6814 152.592 29.8354 153.483 29.8354 154.528C29.8354 155.359 29.7328 156.096 29.5274 156.74C29.3314 157.384 29.0468 157.93 28.6734 158.378C28.3001 158.826 27.8381 159.167 27.2874 159.4C26.7461 159.634 26.1348 159.75 25.4534 159.75ZM26.0134 154.444C26.3028 154.444 26.5548 154.379 26.7694 154.248C26.9934 154.108 27.1661 153.917 27.2874 153.674C27.4088 153.432 27.4694 153.156 27.4694 152.848C27.4694 152.531 27.4088 152.251 27.2874 152.008C27.1661 151.766 26.9934 151.579 26.7694 151.448C26.5548 151.318 26.3028 151.252 26.0134 151.252C25.7241 151.252 25.4721 151.318 25.2574 151.448C25.0428 151.579 24.8701 151.766 24.7394 152.008C24.6181 152.251 24.5574 152.531 24.5574 152.848C24.5574 153.156 24.6181 153.432 24.7394 153.674C24.8701 153.917 25.0428 154.108 25.2574 154.248C25.4721 154.379 25.7241 154.444 26.0134 154.444Z" fill="#578BB7"/>
<path d="M57.8031 159.596C57.4578 159.596 57.2011 159.517 57.0331 159.358C56.8744 159.19 56.7951 158.948 56.7951 158.63C56.7951 158.425 56.8464 158.234 56.9491 158.056C57.0518 157.879 57.1918 157.697 57.3691 157.51L60.0011 154.738C60.3931 154.318 60.6731 153.945 60.8411 153.618C61.0184 153.292 61.1071 152.965 61.1071 152.638C61.1071 152.228 60.9718 151.915 60.7011 151.7C60.4398 151.486 60.0571 151.378 59.5531 151.378C59.2824 151.378 59.0024 151.42 58.7131 151.504C58.4331 151.579 58.1391 151.705 57.8311 151.882C57.6258 151.994 57.4344 152.036 57.2571 152.008C57.0891 151.971 56.9444 151.892 56.8231 151.77C56.7018 151.64 56.6224 151.486 56.5851 151.308C56.5478 151.131 56.5664 150.954 56.6411 150.776C56.7158 150.599 56.8558 150.45 57.0611 150.328C57.4718 150.076 57.9198 149.89 58.4051 149.768C58.8904 149.638 59.3711 149.572 59.8471 149.572C60.5844 149.572 61.2051 149.684 61.7091 149.908C62.2131 150.123 62.5958 150.44 62.8571 150.86C63.1184 151.28 63.2491 151.794 63.2491 152.4C63.2491 152.792 63.1884 153.175 63.0671 153.548C62.9458 153.922 62.7544 154.3 62.4931 154.682C62.2411 155.056 61.9051 155.457 61.4851 155.886L59.0351 158.378V157.818H62.8291C63.1278 157.818 63.3518 157.893 63.5011 158.042C63.6598 158.192 63.7391 158.411 63.7391 158.7C63.7391 158.99 63.6598 159.214 63.5011 159.372C63.3518 159.522 63.1278 159.596 62.8291 159.596H57.8031ZM68.4656 159.75C67.271 159.75 66.3563 159.307 65.7216 158.42C65.0963 157.524 64.7836 156.26 64.7836 154.626C64.7836 153.534 64.9236 152.615 65.2036 151.868C65.493 151.112 65.9083 150.543 66.4496 150.16C67.0003 149.768 67.6723 149.572 68.4656 149.572C69.6696 149.572 70.5843 150.006 71.2096 150.874C71.835 151.733 72.1476 152.984 72.1476 154.626C72.1476 155.718 72.003 156.647 71.7136 157.412C71.4336 158.168 71.023 158.747 70.4816 159.148C69.9403 159.55 69.2683 159.75 68.4656 159.75ZM68.4656 157.986C69.007 157.986 69.4083 157.72 69.6696 157.188C69.931 156.647 70.0616 155.793 70.0616 154.626C70.0616 153.46 69.931 152.62 69.6696 152.106C69.4083 151.593 69.007 151.336 68.4656 151.336C67.9243 151.336 67.523 151.593 67.2616 152.106C67.0003 152.62 66.8696 153.46 66.8696 154.626C66.8696 155.793 67.0003 156.647 67.2616 157.188C67.523 157.72 67.9243 157.986 68.4656 157.986Z" fill="#578BB7"/>
<path d="M99.1239 159.596C98.7786 159.596 98.5219 159.517 98.3539 159.358C98.1952 159.19 98.1159 158.948 98.1159 158.63C98.1159 158.425 98.1672 158.234 98.2699 158.056C98.3726 157.879 98.5126 157.697 98.6899 157.51L101.322 154.738C101.714 154.318 101.994 153.945 102.162 153.618C102.339 153.292 102.428 152.965 102.428 152.638C102.428 152.228 102.293 151.915 102.022 151.7C101.761 151.486 101.378 151.378 100.874 151.378C100.603 151.378 100.323 151.42 100.034 151.504C99.7539 151.579 99.4599 151.705 99.1519 151.882C98.9466 151.994 98.7552 152.036 98.5779 152.008C98.4099 151.971 98.2652 151.892 98.1439 151.77C98.0226 151.64 97.9432 151.486 97.9059 151.308C97.8686 151.131 97.8872 150.954 97.9619 150.776C98.0366 150.599 98.1766 150.45 98.3819 150.328C98.7926 150.076 99.2406 149.89 99.7259 149.768C100.211 149.638 100.692 149.572 101.168 149.572C101.905 149.572 102.526 149.684 103.03 149.908C103.534 150.123 103.917 150.44 104.178 150.86C104.439 151.28 104.57 151.794 104.57 152.4C104.57 152.792 104.509 153.175 104.388 153.548C104.267 153.922 104.075 154.3 103.814 154.682C103.562 155.056 103.226 155.457 102.806 155.886L100.356 158.378V157.818H104.15C104.449 157.818 104.673 157.893 104.822 158.042C104.981 158.192 105.06 158.411 105.06 158.7C105.06 158.99 104.981 159.214 104.822 159.372C104.673 159.522 104.449 159.596 104.15 159.596H99.1239ZM107.784 159.596C107.486 159.596 107.257 159.517 107.098 159.358C106.94 159.2 106.86 158.98 106.86 158.7C106.86 158.411 106.94 158.192 107.098 158.042C107.257 157.893 107.486 157.818 107.784 157.818H109.198V151.504H110.22L108.176 152.75C107.962 152.881 107.761 152.932 107.574 152.904C107.397 152.876 107.243 152.797 107.112 152.666C106.982 152.536 106.893 152.382 106.846 152.204C106.809 152.018 106.828 151.836 106.902 151.658C106.977 151.472 107.117 151.313 107.322 151.182L109.268 150.006C109.464 149.885 109.66 149.787 109.856 149.712C110.062 149.638 110.262 149.6 110.458 149.6C110.738 149.6 110.958 149.675 111.116 149.824C111.284 149.964 111.368 150.184 111.368 150.482V157.818H112.642C112.932 157.818 113.156 157.893 113.314 158.042C113.473 158.192 113.552 158.411 113.552 158.7C113.552 158.99 113.473 159.214 113.314 159.372C113.156 159.522 112.932 159.596 112.642 159.596H107.784Z" fill="#578BB7"/>
<path d="M182.645 159.596C182.3 159.596 182.043 159.517 181.875 159.358C181.716 159.19 181.637 158.948 181.637 158.63C181.637 158.425 181.688 158.234 181.791 158.056C181.894 157.879 182.034 157.697 182.211 157.51L184.843 154.738C185.235 154.318 185.515 153.945 185.683 153.618C185.86 153.292 185.949 152.965 185.949 152.638C185.949 152.228 185.814 151.915 185.543 151.7C185.282 151.486 184.899 151.378 184.395 151.378C184.124 151.378 183.844 151.42 183.555 151.504C183.275 151.579 182.981 151.705 182.673 151.882C182.468 151.994 182.276 152.036 182.099 152.008C181.931 151.971 181.786 151.892 181.665 151.77C181.544 151.64 181.464 151.486 181.427 151.308C181.39 151.131 181.408 150.954 181.483 150.776C181.558 150.599 181.698 150.45 181.903 150.328C182.314 150.076 182.762 149.89 183.247 149.768C183.732 149.638 184.213 149.572 184.689 149.572C185.426 149.572 186.047 149.684 186.551 149.908C187.055 150.123 187.438 150.44 187.699 150.86C187.96 151.28 188.091 151.794 188.091 152.4C188.091 152.792 188.03 153.175 187.909 153.548C187.788 153.922 187.596 154.3 187.335 154.682C187.083 155.056 186.747 155.457 186.327 155.886L183.877 158.378V157.818H187.671C187.97 157.818 188.194 157.893 188.343 158.042C188.502 158.192 188.581 158.411 188.581 158.7C188.581 158.99 188.502 159.214 188.343 159.372C188.194 159.522 187.97 159.596 187.671 159.596H182.645ZM193.069 159.75C192.575 159.75 192.071 159.694 191.557 159.582C191.053 159.461 190.615 159.293 190.241 159.078C189.999 158.948 189.831 158.794 189.737 158.616C189.653 158.43 189.621 158.248 189.639 158.07C189.667 157.893 189.742 157.739 189.863 157.608C189.985 157.468 190.139 157.38 190.325 157.342C190.521 157.305 190.736 157.342 190.969 157.454C191.333 157.632 191.679 157.758 192.005 157.832C192.332 157.907 192.659 157.944 192.985 157.944C193.359 157.944 193.671 157.898 193.923 157.804C194.175 157.702 194.367 157.557 194.497 157.37C194.628 157.184 194.693 156.95 194.693 156.67C194.693 156.278 194.558 155.984 194.287 155.788C194.017 155.592 193.62 155.494 193.097 155.494H192.271C191.963 155.494 191.725 155.42 191.557 155.27C191.399 155.112 191.319 154.897 191.319 154.626C191.319 154.346 191.399 154.132 191.557 153.982C191.725 153.824 191.963 153.744 192.271 153.744H192.887C193.205 153.744 193.471 153.698 193.685 153.604C193.909 153.502 194.082 153.362 194.203 153.184C194.334 153.007 194.399 152.788 194.399 152.526C194.399 152.153 194.269 151.868 194.007 151.672C193.755 151.476 193.387 151.378 192.901 151.378C192.603 151.378 192.309 151.416 192.019 151.49C191.73 151.556 191.417 151.677 191.081 151.854C190.876 151.957 190.685 151.99 190.507 151.952C190.33 151.915 190.181 151.831 190.059 151.7C189.947 151.57 189.873 151.42 189.835 151.252C189.807 151.075 189.831 150.898 189.905 150.72C189.989 150.543 190.139 150.398 190.353 150.286C190.755 150.053 191.189 149.876 191.655 149.754C192.131 149.633 192.612 149.572 193.097 149.572C193.807 149.572 194.413 149.68 194.917 149.894C195.421 150.109 195.809 150.417 196.079 150.818C196.35 151.21 196.485 151.686 196.485 152.246C196.485 152.629 196.411 152.979 196.261 153.296C196.112 153.614 195.902 153.884 195.631 154.108C195.37 154.323 195.048 154.477 194.665 154.57V154.388C195.328 154.5 195.846 154.776 196.219 155.214C196.593 155.653 196.779 156.204 196.779 156.866C196.779 157.454 196.63 157.968 196.331 158.406C196.033 158.836 195.603 159.167 195.043 159.4C194.493 159.634 193.835 159.75 193.069 159.75Z" fill="#578BB7"/>
<path d="M221.328 159.596C220.983 159.596 220.726 159.517 220.558 159.358C220.399 159.19 220.32 158.948 220.32 158.63C220.32 158.425 220.371 158.234 220.474 158.056C220.577 157.879 220.717 157.697 220.894 157.51L223.526 154.738C223.918 154.318 224.198 153.945 224.366 153.618C224.543 153.292 224.632 152.965 224.632 152.638C224.632 152.228 224.497 151.915 224.226 151.7C223.965 151.486 223.582 151.378 223.078 151.378C222.807 151.378 222.527 151.42 222.238 151.504C221.958 151.579 221.664 151.705 221.356 151.882C221.151 151.994 220.959 152.036 220.782 152.008C220.614 151.971 220.469 151.892 220.348 151.77C220.227 151.64 220.147 151.486 220.11 151.308C220.073 151.131 220.091 150.954 220.166 150.776C220.241 150.599 220.381 150.45 220.586 150.328C220.997 150.076 221.445 149.89 221.93 149.768C222.415 149.638 222.896 149.572 223.372 149.572C224.109 149.572 224.73 149.684 225.234 149.908C225.738 150.123 226.121 150.44 226.382 150.86C226.643 151.28 226.774 151.794 226.774 152.4C226.774 152.792 226.713 153.175 226.592 153.548C226.471 153.922 226.279 154.3 226.018 154.682C225.766 155.056 225.43 155.457 225.01 155.886L222.56 158.378V157.818H226.354C226.653 157.818 226.877 157.893 227.026 158.042C227.185 158.192 227.264 158.411 227.264 158.7C227.264 158.99 227.185 159.214 227.026 159.372C226.877 159.522 226.653 159.596 226.354 159.596H221.328ZM233.531 159.722C233.195 159.722 232.929 159.629 232.733 159.442C232.546 159.256 232.453 158.985 232.453 158.63V157.832H229.317C228.971 157.832 228.696 157.758 228.491 157.608C228.285 157.45 228.183 157.212 228.183 156.894C228.183 156.708 228.225 156.516 228.309 156.32C228.393 156.124 228.542 155.882 228.757 155.592L232.383 150.314C232.541 150.081 232.719 149.904 232.915 149.782C233.111 149.661 233.335 149.6 233.587 149.6C233.885 149.6 234.123 149.694 234.301 149.88C234.487 150.058 234.581 150.328 234.581 150.692V156.124H235.099C235.407 156.124 235.64 156.199 235.799 156.348C235.957 156.488 236.037 156.698 236.037 156.978C236.037 157.249 235.957 157.459 235.799 157.608C235.649 157.758 235.416 157.832 235.099 157.832H234.581V158.63C234.581 158.985 234.487 159.256 234.301 159.442C234.123 159.629 233.867 159.722 233.531 159.722ZM232.453 156.124V152.274H232.859L229.877 156.656V156.124H232.453Z" fill="#578BB7"/>
<path d="M266.166 158.724C265.821 158.724 265.564 158.645 265.396 158.486C265.237 158.318 265.158 158.076 265.158 157.758C265.158 157.553 265.209 157.362 265.312 157.184C265.415 157.007 265.555 156.825 265.732 156.638L268.364 153.866C268.756 153.446 269.036 153.073 269.204 152.746C269.381 152.42 269.47 152.093 269.47 151.766C269.47 151.356 269.335 151.043 269.064 150.828C268.803 150.614 268.42 150.506 267.916 150.506C267.645 150.506 267.365 150.548 267.076 150.632C266.796 150.707 266.502 150.833 266.194 151.01C265.989 151.122 265.797 151.164 265.62 151.136C265.452 151.099 265.307 151.02 265.186 150.898C265.065 150.768 264.985 150.614 264.948 150.436C264.911 150.259 264.929 150.082 265.004 149.904C265.079 149.727 265.219 149.578 265.424 149.456C265.835 149.204 266.283 149.018 266.768 148.896C267.253 148.766 267.734 148.7 268.21 148.7C268.947 148.7 269.568 148.812 270.072 149.036C270.576 149.251 270.959 149.568 271.22 149.988C271.481 150.408 271.612 150.922 271.612 151.528C271.612 151.92 271.551 152.303 271.43 152.676C271.309 153.05 271.117 153.428 270.856 153.81C270.604 154.184 270.268 154.585 269.848 155.014L267.398 157.506V156.946H271.192C271.491 156.946 271.715 157.021 271.864 157.17C272.023 157.32 272.102 157.539 272.102 157.828C272.102 158.118 272.023 158.342 271.864 158.5C271.715 158.65 271.491 158.724 271.192 158.724H266.166ZM276.842 158.878C276.366 158.878 275.876 158.818 275.372 158.696C274.868 158.575 274.406 158.393 273.986 158.15C273.772 158.029 273.622 157.88 273.538 157.702C273.464 157.525 273.44 157.343 273.468 157.156C273.506 156.97 273.58 156.811 273.692 156.68C273.814 156.54 273.963 156.452 274.14 156.414C274.327 156.377 274.532 156.419 274.756 156.54C275.083 156.708 275.414 156.839 275.75 156.932C276.096 157.026 276.446 157.072 276.8 157.072C277.155 157.072 277.458 157.012 277.71 156.89C277.962 156.769 278.154 156.601 278.284 156.386C278.415 156.172 278.48 155.92 278.48 155.63C278.48 155.182 278.336 154.823 278.046 154.552C277.766 154.282 277.384 154.146 276.898 154.146C276.656 154.146 276.408 154.188 276.156 154.272C275.914 154.347 275.662 154.482 275.4 154.678C275.307 154.753 275.186 154.823 275.036 154.888C274.887 154.954 274.728 154.986 274.56 154.986C274.271 154.986 274.056 154.921 273.916 154.79C273.776 154.65 273.706 154.45 273.706 154.188V149.792C273.706 149.484 273.786 149.251 273.944 149.092C274.112 148.934 274.346 148.854 274.644 148.854H279.138C279.446 148.854 279.68 148.934 279.838 149.092C279.997 149.242 280.076 149.461 280.076 149.75C280.076 150.03 279.997 150.25 279.838 150.408C279.68 150.558 279.446 150.632 279.138 150.632H275.792V153.306H275.26C275.494 153.017 275.802 152.793 276.184 152.634C276.567 152.476 276.987 152.396 277.444 152.396C278.07 152.396 278.616 152.532 279.082 152.802C279.549 153.064 279.913 153.432 280.174 153.908C280.436 154.384 280.566 154.935 280.566 155.56C280.566 156.214 280.417 156.792 280.118 157.296C279.82 157.791 279.39 158.178 278.83 158.458C278.27 158.738 277.608 158.878 276.842 158.878Z" fill="#578BB7"/>
<path d="M108.042 23.2586C107.688 23.2586 107.417 23.1606 107.23 22.9646C107.044 22.7686 106.95 22.4932 106.95 22.1386V15.0546H104.472C104.183 15.0546 103.959 14.9752 103.8 14.8166C103.642 14.6579 103.562 14.4386 103.562 14.1586C103.562 13.8692 103.642 13.6499 103.8 13.5006C103.959 13.3419 104.183 13.2626 104.472 13.2626H111.598C111.888 13.2626 112.112 13.3419 112.27 13.5006C112.429 13.6499 112.508 13.8692 112.508 14.1586C112.508 14.4386 112.429 14.6579 112.27 14.8166C112.112 14.9752 111.888 15.0546 111.598 15.0546H109.12V22.1386C109.12 22.4932 109.027 22.7686 108.84 22.9646C108.663 23.1606 108.397 23.2586 108.042 23.2586Z" fill="#578BB7"/>
<path d="M150.421 22.8895C150.571 23.1321 150.627 23.3515 150.589 23.5475C150.552 23.7528 150.459 23.9208 150.309 24.0515C150.16 24.1915 149.978 24.2801 149.763 24.3175C149.558 24.3548 149.348 24.3315 149.133 24.2475C148.928 24.1728 148.751 24.0235 148.601 23.7995L147.607 22.1755C147.486 21.9888 147.327 21.8488 147.131 21.7555C146.945 21.6715 146.702 21.6295 146.403 21.6295L148.055 20.9995C148.485 20.9995 148.835 21.0741 149.105 21.2235C149.385 21.3728 149.637 21.6295 149.861 21.9935L150.421 22.8895ZM146.417 21.6295C145.447 21.6295 144.593 21.4195 143.855 20.9995C143.127 20.5701 142.558 19.9728 142.147 19.2075C141.746 18.4421 141.545 17.5508 141.545 16.5335C141.545 15.7588 141.657 15.0635 141.881 14.4475C142.115 13.8221 142.446 13.2901 142.875 12.8515C143.305 12.4035 143.818 12.0581 144.415 11.8155C145.022 11.5728 145.689 11.4515 146.417 11.4515C147.407 11.4515 148.265 11.6615 148.993 12.0815C149.721 12.5015 150.286 13.0941 150.687 13.8595C151.098 14.6155 151.303 15.5021 151.303 16.5195C151.303 17.2941 151.187 17.9941 150.953 18.6195C150.72 19.2448 150.389 19.7815 149.959 20.2295C149.53 20.6775 149.017 21.0228 148.419 21.2655C147.822 21.5081 147.155 21.6295 146.417 21.6295ZM146.417 19.7815C146.968 19.7815 147.435 19.6555 147.817 19.4035C148.209 19.1421 148.508 18.7688 148.713 18.2835C148.928 17.7888 149.035 17.2055 149.035 16.5335C149.035 15.5068 148.807 14.7135 148.349 14.1535C147.892 13.5841 147.248 13.2995 146.417 13.2995C145.876 13.2995 145.409 13.4255 145.017 13.6775C144.625 13.9295 144.327 14.2981 144.121 14.7835C143.916 15.2688 143.813 15.8521 143.813 16.5335C143.813 17.5508 144.042 18.3488 144.499 18.9275C144.957 19.4968 145.596 19.7815 146.417 19.7815Z" fill="#578BB7"/>
<path d="M191.994 22.8895C192.143 23.1321 192.199 23.3515 192.162 23.5475C192.125 23.7528 192.031 23.9208 191.882 24.0515C191.733 24.1915 191.551 24.2801 191.336 24.3175C191.131 24.3548 190.921 24.3315 190.706 24.2475C190.501 24.1728 190.323 24.0235 190.174 23.7995L189.18 22.1755C189.059 21.9888 188.9 21.8488 188.704 21.7555C188.517 21.6715 188.275 21.6295 187.976 21.6295L189.628 20.9995C190.057 20.9995 190.407 21.0741 190.678 21.2235C190.958 21.3728 191.21 21.6295 191.434 21.9935L191.994 22.8895ZM187.99 21.6295C187.019 21.6295 186.165 21.4195 185.428 20.9995C184.7 20.5701 184.131 19.9728 183.72 19.2075C183.319 18.4421 183.118 17.5508 183.118 16.5335C183.118 15.7588 183.23 15.0635 183.454 14.4475C183.687 13.8221 184.019 13.2901 184.448 12.8515C184.877 12.4035 185.391 12.0581 185.988 11.8155C186.595 11.5728 187.262 11.4515 187.99 11.4515C188.979 11.4515 189.838 11.6615 190.566 12.0815C191.294 12.5015 191.859 13.0941 192.26 13.8595C192.671 14.6155 192.876 15.5021 192.876 16.5195C192.876 17.2941 192.759 17.9941 192.526 18.6195C192.293 19.2448 191.961 19.7815 191.532 20.2295C191.103 20.6775 190.589 21.0228 189.992 21.2655C189.395 21.5081 188.727 21.6295 187.99 21.6295ZM187.99 19.7815C188.541 19.7815 189.007 19.6555 189.39 19.4035C189.782 19.1421 190.081 18.7688 190.286 18.2835C190.501 17.7888 190.608 17.2055 190.608 16.5335C190.608 15.5068 190.379 14.7135 189.922 14.1535C189.465 13.5841 188.821 13.2995 187.99 13.2995C187.449 13.2995 186.982 13.4255 186.59 13.6775C186.198 13.9295 185.899 14.2981 185.694 14.7835C185.489 15.2688 185.386 15.8521 185.386 16.5335C185.386 17.5508 185.615 18.3488 186.072 18.9275C186.529 19.4968 187.169 19.7815 187.99 19.7815Z" fill="#578BB7"/>
<path d="M229.378 22.4581C228.986 22.4581 228.585 22.4254 228.174 22.3601C227.773 22.3041 227.385 22.2201 227.012 22.1081C226.648 21.9961 226.321 21.8561 226.032 21.6881C225.827 21.5761 225.682 21.4314 225.598 21.2541C225.514 21.0674 225.481 20.8807 225.5 20.6941C225.528 20.5074 225.598 20.3441 225.71 20.2041C225.831 20.0547 225.981 19.9614 226.158 19.9241C226.345 19.8774 226.55 19.9101 226.774 20.0221C227.157 20.2367 227.572 20.3954 228.02 20.4981C228.477 20.6007 228.93 20.6521 229.378 20.6521C230.059 20.6521 230.545 20.5494 230.834 20.3441C231.123 20.1294 231.268 19.8634 231.268 19.5461C231.268 19.2754 231.165 19.0607 230.96 18.9021C230.755 18.7434 230.395 18.6081 229.882 18.4961L228.3 18.1601C227.404 17.9734 226.737 17.6561 226.298 17.2081C225.869 16.7507 225.654 16.1534 225.654 15.4161C225.654 14.9494 225.752 14.5247 225.948 14.1421C226.144 13.7594 226.419 13.4281 226.774 13.1481C227.129 12.8681 227.549 12.6534 228.034 12.5041C228.529 12.3547 229.07 12.2801 229.658 12.2801C230.181 12.2801 230.694 12.3454 231.198 12.4761C231.702 12.5974 232.145 12.7794 232.528 13.0221C232.715 13.1341 232.841 13.2787 232.906 13.4561C232.981 13.6241 233.004 13.7967 232.976 13.9741C232.957 14.1421 232.887 14.2914 232.766 14.4221C232.654 14.5527 232.509 14.6367 232.332 14.6741C232.155 14.7114 231.94 14.6694 231.688 14.5481C231.38 14.3894 231.053 14.2727 230.708 14.1981C230.363 14.1234 230.008 14.0861 229.644 14.0861C229.252 14.0861 228.916 14.1374 228.636 14.2401C228.365 14.3427 228.155 14.4874 228.006 14.6741C227.866 14.8607 227.796 15.0754 227.796 15.3181C227.796 15.5887 227.894 15.8081 228.09 15.9761C228.286 16.1441 228.627 16.2794 229.112 16.3821L230.694 16.7181C231.609 16.9141 232.29 17.2314 232.738 17.6701C233.186 18.0994 233.41 18.6687 233.41 19.3781C233.41 19.8447 233.317 20.2694 233.13 20.6521C232.943 21.0254 232.673 21.3474 232.318 21.6181C231.963 21.8887 231.539 22.0987 231.044 22.2481C230.549 22.3881 229.994 22.4581 229.378 22.4581Z" fill="#578BB7"/>
<path d="M270.085 21.6295C269.693 21.6295 269.292 21.5968 268.881 21.5315C268.48 21.4755 268.092 21.3915 267.719 21.2795C267.355 21.1675 267.028 21.0275 266.739 20.8595C266.534 20.7475 266.389 20.6028 266.305 20.4255C266.221 20.2388 266.188 20.0521 266.207 19.8655C266.235 19.6788 266.305 19.5155 266.417 19.3755C266.538 19.2261 266.688 19.1328 266.865 19.0955C267.052 19.0488 267.257 19.0815 267.481 19.1935C267.864 19.4081 268.279 19.5668 268.727 19.6695C269.184 19.7721 269.637 19.8235 270.085 19.8235C270.766 19.8235 271.252 19.7208 271.541 19.5155C271.83 19.3008 271.975 19.0348 271.975 18.7175C271.975 18.4468 271.872 18.2321 271.667 18.0735C271.462 17.9148 271.102 17.7795 270.589 17.6675L269.007 17.3315C268.111 17.1448 267.444 16.8275 267.005 16.3795C266.576 15.9221 266.361 15.3248 266.361 14.5875C266.361 14.1208 266.459 13.6961 266.655 13.3135C266.851 12.9308 267.126 12.5995 267.481 12.3195C267.836 12.0395 268.256 11.8248 268.741 11.6755C269.236 11.5261 269.777 11.4515 270.365 11.4515C270.888 11.4515 271.401 11.5168 271.905 11.6475C272.409 11.7688 272.852 11.9508 273.235 12.1935C273.422 12.3055 273.548 12.4501 273.613 12.6275C273.688 12.7955 273.711 12.9681 273.683 13.1455C273.664 13.3135 273.594 13.4628 273.473 13.5935C273.361 13.7241 273.216 13.8081 273.039 13.8455C272.862 13.8828 272.647 13.8408 272.395 13.7195C272.087 13.5608 271.76 13.4441 271.415 13.3695C271.07 13.2948 270.715 13.2575 270.351 13.2575C269.959 13.2575 269.623 13.3088 269.343 13.4115C269.072 13.5141 268.862 13.6588 268.713 13.8455C268.573 14.0321 268.503 14.2468 268.503 14.4895C268.503 14.7601 268.601 14.9795 268.797 15.1475C268.993 15.3155 269.334 15.4508 269.819 15.5535L271.401 15.8895C272.316 16.0855 272.997 16.4028 273.445 16.8415C273.893 17.2708 274.117 17.8401 274.117 18.5495C274.117 19.0161 274.024 19.4408 273.837 19.8235C273.65 20.1968 273.38 20.5188 273.025 20.7895C272.67 21.0601 272.246 21.2701 271.751 21.4195C271.256 21.5595 270.701 21.6295 270.085 21.6295Z" fill="#578BB7"/>
<line x1="4" y1="33.6942" x2="295.039" y2="33.6942" stroke="#578BB7"/>
<defs>
<filter id="filter0_d_144_7431" x="0" y="0" width="299.005" height="222.471" filterUnits="userSpaceOnUse" color-interpolation-filters="sRGB">
<feFlood flood-opacity="0" result="BackgroundImageFix"/>
<feColorMatrix in="SourceAlpha" type="matrix" values="0 0 0 0 0 0 0 0 0 0 0 0 0 0 0 0 0 0 127 0" result="hardAlpha"/>
<feOffset dy="4"/>
<feGaussianBlur stdDeviation="2"/>
<feComposite in2="hardAlpha" operator="out"/>
<feColorMatrix type="matrix" values="0 0 0 0 0 0 0 0 0 0 0 0 0 0 0 0 0 0 0.25 0"/>
<feBlend mode="normal" in2="BackgroundImageFix" result="effect1_dropShadow_144_7431"/>
<feBlend mode="normal" in="SourceGraphic" in2="effect1_dropShadow_144_7431" result="shape"/>
</filter>
</defs>
</svg>
