<svg width="14" height="17" viewBox="0 0 14 17" fill="none" xmlns="http://www.w3.org/2000/svg">
<path d="M7 0C5.73611 0 4.64236 0.420573 3.71875 1.26172C2.79514 2.10286 2.33333 3.09896 2.33333 4.25V6.375C1.67708 6.375 1.12413 6.57975 0.674479 6.98926C0.224826 7.39876 0 7.90234 0 8.5V14.875C0 15.4727 0.224826 15.9762 0.674479 16.3857C1.12413 16.7952 1.67708 17 2.33333 17H11.6667C12.3229 17 12.8759 16.7952 13.3255 16.3857C13.7752 15.9762 14 15.4727 14 14.875V8.5C14 7.90234 13.7752 7.39876 13.3255 6.98926C12.8759 6.57975 12.3229 6.375 11.6667 6.375V4.25C11.6667 3.09896 11.2049 2.10286 10.2812 1.26172C9.35764 0.420573 8.26389 0 7 0ZM12.4323 8.5V14.875C12.4323 15.3398 12.1771 15.5723 11.6667 15.5723H2.33333C1.82292 15.5723 1.56771 15.3398 1.56771 14.875V8.5C1.56771 8.03516 1.82292 7.80273 2.33333 7.80273H11.6667C12.1771 7.80273 12.4323 8.03516 12.4323 8.5ZM3.90104 6.375V4.25C3.90104 3.47526 4.20486 2.8112 4.8125 2.25781C5.42014 1.70443 6.14931 1.42773 7 1.42773C7.85069 1.42773 8.57986 1.70443 9.1875 2.25781C9.79514 2.8112 10.099 3.47526 10.099 4.25V6.375H3.90104ZM7 8.5C6.34375 8.5 5.7908 8.70475 5.34115 9.11426C4.89149 9.52376 4.66667 10.0273 4.66667 10.625C4.66667 11.0677 4.8125 11.4717 5.10417 11.8369C5.39583 12.2021 5.77257 12.4622 6.23437 12.6172V13.4473C6.23437 13.9342 6.48958 14.1777 7 14.1777C7.51042 14.1777 7.76562 13.9342 7.76562 13.4473V12.6172C8.81076 12.2852 9.33333 11.6211 9.33333 10.625C9.33333 10.0273 9.10851 9.52376 8.65885 9.11426C8.2092 8.70475 7.65625 8.5 7 8.5ZM7 11.3223C6.48958 11.3223 6.23437 11.0898 6.23437 10.625C6.23437 10.1602 6.48958 9.92773 7 9.92773C7.51042 9.92773 7.76562 10.1602 7.76562 10.625C7.76562 11.0898 7.51042 11.3223 7 11.3223Z" fill="#5E8CB0"/>
</svg>
