<svg width="15" height="14" viewBox="0 0 15 14" fill="none" xmlns="http://www.w3.org/2000/svg">
<path d="M10.2851 7.49653C11.024 6.9569 11.5633 6.21691 11.8281 5.37951C12.0928 4.5421 12.0698 3.64893 11.7622 2.82425C11.4545 1.99956 10.8777 1.28438 10.1118 0.778197C9.34586 0.272014 8.42903 0 7.48882 0C6.54861 0 5.63178 0.272014 4.86588 0.778197C4.09998 1.28438 3.52309 1.99956 3.21548 2.82425C2.90787 3.64893 2.88483 4.5421 3.14957 5.37951C3.41431 6.21691 3.95366 6.9569 4.69258 7.49653C3.42642 7.96738 2.32165 8.74835 1.49604 9.75616C0.670442 10.764 0.154958 11.9609 0.00454622 13.2192C-0.00634133 13.3111 0.00237294 13.4041 0.0301913 13.4928C0.0580097 13.5816 0.104387 13.6643 0.166676 13.7365C0.292475 13.8821 0.475448 13.9754 0.675342 13.9958C0.875237 14.0162 1.07568 13.9621 1.23257 13.8453C1.38947 13.7285 1.48996 13.5587 1.51195 13.3731C1.67746 12.0056 2.37998 10.7425 3.48531 9.82534C4.59064 8.90815 6.02128 8.40112 7.5039 8.40112C8.98651 8.40112 10.4171 8.90815 11.5225 9.82534C12.6278 10.7425 13.3303 12.0056 13.4958 13.3731C13.5163 13.545 13.6047 13.7038 13.7439 13.8188C13.8831 13.9338 14.0632 13.9968 14.2495 13.9958H14.3324C14.53 13.9747 14.7106 13.882 14.8348 13.7378C14.9591 13.5937 15.0169 13.4098 14.9957 13.2262C14.8446 11.9643 14.3263 10.7643 13.4965 9.75497C12.6666 8.7456 11.5565 7.96489 10.2851 7.49653ZM7.48882 6.99981C6.89255 6.99981 6.30966 6.83569 5.81388 6.5282C5.3181 6.22071 4.93168 5.78366 4.7035 5.27232C4.47531 4.76098 4.41561 4.19832 4.53194 3.65549C4.64826 3.11265 4.9354 2.61403 5.35703 2.22267C5.77866 1.83131 6.31584 1.56479 6.90066 1.45681C7.48548 1.34883 8.09166 1.40425 8.64254 1.61605C9.19343 1.82786 9.66428 2.18653 9.99555 2.64672C10.3268 3.10692 10.5036 3.64796 10.5036 4.20143C10.5036 4.9436 10.186 5.65538 9.62062 6.18018C9.05523 6.70498 8.2884 6.99981 7.48882 6.99981Z" fill="#5A88AC"/>
</svg>
