<svg width="31" height="31" viewBox="0 0 31 31" fill="none" xmlns="http://www.w3.org/2000/svg">
<g filter="url(#filter0_d_90_162)">
<path d="M11.6573 15.5C11.6573 15.3278 11.6896 15.1607 11.7541 14.9988C11.8187 14.8369 11.9048 14.7026 12.0125 14.5958L17.9541 8.65416C18.1909 8.41735 18.4923 8.29895 18.8583 8.29895C19.2243 8.29895 19.5257 8.41735 19.7625 8.65416C19.9993 8.89096 20.1177 9.19235 20.1177 9.55833C20.1177 9.9243 19.9993 10.2257 19.7625 10.4625L14.725 15.5L19.7625 20.5375C19.9993 20.7743 20.1177 21.0757 20.1177 21.4417C20.1177 21.8076 19.9993 22.109 19.7625 22.3458C19.5257 22.5826 19.2243 22.701 18.8583 22.701C18.4923 22.701 18.1909 22.5826 17.9541 22.3458L12.0125 16.4042C11.8833 16.275 11.7916 16.1351 11.7373 15.9844C11.6831 15.8337 11.6564 15.6722 11.6573 15.5Z" fill="#5B89AD"/>
</g>
<defs>
<filter id="filter0_d_90_162" x="-4" y="0" width="39" height="39" filterUnits="userSpaceOnUse" color-interpolation-filters="sRGB">
<feFlood flood-opacity="0" result="BackgroundImageFix"/>
<feColorMatrix in="SourceAlpha" type="matrix" values="0 0 0 0 0 0 0 0 0 0 0 0 0 0 0 0 0 0 127 0" result="hardAlpha"/>
<feOffset dy="4"/>
<feGaussianBlur stdDeviation="2"/>
<feComposite in2="hardAlpha" operator="out"/>
<feColorMatrix type="matrix" values="0 0 0 0 1 0 0 0 0 1 0 0 0 0 1 0 0 0 0.4 0"/>
<feBlend mode="normal" in2="BackgroundImageFix" result="effect1_dropShadow_90_162"/>
<feBlend mode="normal" in="SourceGraphic" in2="effect1_dropShadow_90_162" result="shape"/>
</filter>
</defs>
</svg>
